Facade-SemiBold.ufo
<glyph name="numbersign" format="2">
  <advance width="750.0"/>
  <unicode hex="0023"/>
  <outline>
    <contour>
      <point x="84.5" y="0.0" type="line"/>
      <point x="216.5" y="0.0" type="line"/>
      <point x="252.5" y="216.0" type="line"/>
      <point x="417.5" y="216.0" type="line"/>
      <point x="381.5" y="0.0" type="line"/>
      <point x="513.5" y="0.0" type="line"/>
      <point x="549.5" y="216.0" type="line"/>
      <point x="657.0" y="216.0" type="line"/>
      <point x="677.0" y="336.0" type="line"/>
      <point x="569.5" y="336.0" type="line"/>
      <point x="607.5" y="564.0" type="line"/>
      <point x="711.0" y="564.0" type="line"/>
      <point x="731.0" y="684.0" type="line"/>
      <point x="627.5" y="684.0" type="line"/>
      <point x="663.5" y="900.0" type="line"/>
      <point x="531.5" y="900.0" type="line"/>
      <point x="495.5" y="684.0" type="line"/>
      <point x="330.5" y="684.0" type="line"/>
      <point x="366.5" y="900.0" type="line"/>
      <point x="234.5" y="900.0" type="line"/>
      <point x="198.5" y="684.0" type="line"/>
      <point x="93.0" y="684.0" type="line"/>
      <point x="73.0" y="564.0" type="line"/>
      <point x="178.5" y="564.0" type="line"/>
      <point x="140.5" y="336.0" type="line"/>
      <point x="39.0" y="336.0" type="line"/>
      <point x="19.0" y="216.0" type="line"/>
      <point x="120.5" y="216.0" type="line"/>
    </contour>
    <contour>
      <point x="264.5" y="329.0" type="line"/>
      <point x="304.5" y="571.0" type="line"/>
      <point x="483.5" y="571.0" type="line"/>
      <point x="443.5" y="329.0" type="line"/>
    </contour>
  </outline>
</glyph>
<glyph name="quotesingle" format="2">
  <advance width="285.0"/>
  <unicode hex="0027"/>
  <outline>
    <contour>
      <point x="105.75" y="547.5" type="line"/>
      <point x="179.25" y="547.5" type="line"/>
      <point x="236.25" y="900.0" type="line"/>
      <point x="48.75" y="900.0" type="line"/>
    </contour>
  </outline>
</glyph>
<glyph name="parenright" format="2">
  <advance width="480.0"/>
  <unicode hex="0029"/>
  <outline>
    <contour>
      <point x="66.0" y="-180.0" type="curve"/>
      <point x="227.5" y="-180.0" type="line"/>
      <point x="329.5" y="-13.0"/>
      <point x="388.5" y="182.0"/>
      <point x="388.5" y="390.0" type="curve" smooth="yes"/>
      <point x="388.5" y="598.0"/>
      <point x="329.5" y="793.0"/>
      <point x="227.5" y="960.0" type="curve"/>
      <point x="66.0" y="960.0" type="line"/>
      <point x="177.0" y="799.0"/>
      <point x="240.0" y="604.0"/>
      <point x="240.0" y="390.0" type="curve" smooth="yes"/>
      <point x="240.0" y="176.0"/>
      <point x="177.0" y="-19.0"/>
    </contour>
  </outline>
</glyph>
<glyph name="slash" format="2">
  <advance width="510.0"/>
  <unicode hex="002F"/>
  <outline>
    <contour>
      <point x="-81.0" y="-180.0" type="line"/>
      <point x="59.25" y="-180.0" type="line"/>
      <point x="591.0" y="960.0" type="line"/>
      <point x="450.75" y="960.0" type="line"/>
    </contour>
  </outline>
</glyph>
<glyph name="eight" format="2">
  <advance width="750.0"/>
  <unicode hex="0038"/>
  <outline>
    <contour>
      <point x="375.0" y="-18.0" type="curve" smooth="yes"/>
      <point x="545.0" y="-18.0"/>
      <point x="694.5" y="121.75"/>
      <point x="694.5" y="293.75" type="curve" smooth="yes"/>
      <point x="694.5" y="421.75"/>
      <point x="617.25" y="527.75"/>
      <point x="509.0" y="575.5" type="curve"/>
      <point x="526.25" y="522.25" type="line"/>
      <point x="575.75" y="562.25"/>
      <point x="607.75" y="618.75"/>
      <point x="607.75" y="691.5" type="curve" smooth="yes"/>
      <point x="607.75" y="819.75"/>
      <point x="503.75" y="918.0"/>
      <point x="375.0" y="918.0" type="curve" smooth="yes"/>
      <point x="246.25" y="918.0"/>
      <point x="142.25" y="819.75"/>
      <point x="142.25" y="691.5" type="curve" smooth="yes"/>
      <point x="142.25" y="618.75"/>
      <point x="174.25" y="563.25"/>
      <point x="223.75" y="522.25" type="curve"/>
      <point x="241.0" y="575.5" type="line"/>
      <point x="132.75" y="527.75"/>
      <point x="55.5" y="421.75"/>
      <point x="55.5" y="293.75" type="curve" smooth="yes"/>
      <point x="55.5" y="118.0"/>
      <point x="201.25" y="-18.0"/>
    </contour>
    <contour>
      <point x="375.0" y="126.0" type="curve" smooth="yes"/>
      <point x="281.25" y="126.0"/>
      <point x="207.0" y="201.25"/>
      <point x="207.0" y="294.0" type="curve" smooth="yes"/>
      <point x="207.0" y="387.75"/>
      <point x="281.25" y="462.0"/>
      <point x="375.0" y="462.0" type="curve" smooth="yes"/>
      <point x="468.75" y="462.0"/>
      <point x="543.0" y="387.75"/>
      <point x="543.0" y="294.0" type="curve" smooth="yes"/>
      <point x="543.0" y="201.25"/>
      <point x="468.75" y="126.0"/>
    </contour>
    <contour>
      <point x="375.0" y="589.0" type="curve" smooth="yes"/>
      <point x="321.5" y="589.0"/>
      <point x="278.75" y="631.75"/>
      <point x="278.75" y="685.25" type="curve" smooth="yes"/>
      <point x="278.75" y="738.75"/>
      <point x="321.5" y="781.5"/>
      <point x="375.0" y="781.5" type="curve" smooth="yes"/>
      <point x="428.5" y="781.5"/>
      <point x="471.25" y="738.75"/>
      <point x="471.25" y="685.25" type="curve" smooth="yes"/>
      <point x="471.25" y="631.75"/>
      <point x="428.5" y="589.0"/>
    </contour>
  </outline>
</glyph>
<glyph name="nine" format="2">
  <advance width="750.0"/>
  <unicode hex="0039"/>
  <outline>
    <contour>
      <point x="240.0" y="0.0" type="line"/>
      <point x="406.0" y="0.0" type="line"/>
      <point x="647.25" y="461.5" type="line" smooth="yes"/>
      <point x="672.5" y="510.0"/>
      <point x="687.0" y="558.75"/>
      <point x="687.0" y="613.0" type="curve" smooth="yes"/>
      <point x="687.0" y="784.25"/>
      <point x="547.0" y="918.0"/>
      <point x="369.75" y="918.0" type="curve" smooth="yes"/>
      <point x="193.25" y="918.0"/>
      <point x="52.5" y="784.25"/>
      <point x="52.5" y="610.75" type="curve" smooth="yes"/>
      <point x="52.5" y="441.25"/>
      <point x="184.75" y="309.5"/>
      <point x="352.0" y="309.5" type="curve" smooth="yes"/>
      <point x="398.5" y="309.5"/>
      <point x="444.5" y="320.5"/>
      <point x="486.25" y="360.25" type="curve"/>
      <point x="434.0" y="366.25" type="line"/>
    </contour>
    <contour>
      <point x="369.75" y="445.5" type="curve" smooth="yes"/>
      <point x="278.5" y="445.5"/>
      <point x="207.0" y="518.5"/>
      <point x="207.0" y="608.25" type="curve" smooth="yes"/>
      <point x="207.0" y="698.0"/>
      <point x="279.25" y="771.0"/>
      <point x="369.75" y="771.0" type="curve" smooth="yes"/>
      <point x="460.25" y="771.0"/>
      <point x="532.5" y="698.0"/>
      <point x="532.5" y="608.25" type="curve" smooth="yes"/>
      <point x="532.5" y="518.5"/>
      <point x="460.25" y="445.5"/>
    </contour>
  </outline>
</glyph>
<glyph name="question" format="2">
  <advance width="480.0"/>
  <unicode hex="003F"/>
  <outline>
    <contour>
      <point x="178.5" y="322.5" type="curve"/>
      <point x="301.5" y="322.5" type="line"/>
      <point x="318.75" y="471.25"/>
      <point x="459.0" y="542.25"/>
      <point x="459.0" y="700.5" type="curve" smooth="yes"/>
      <point x="459.0" y="824.75"/>
      <point x="369.5" y="916.5"/>
      <point x="229.25" y="916.5" type="curve" smooth="yes"/>
      <point x="167.0" y="916.5"/>
      <point x="115.25" y="897.75"/>
      <point x="72.0" y="865.75" type="curve"/>
      <point x="72.0" y="702.75" type="line"/>
      <point x="101.5" y="739.0"/>
      <point x="147.75" y="774.5"/>
      <point x="208.0" y="774.5" type="curve" smooth="yes"/>
      <point x="268.75" y="774.5"/>
      <point x="310.5" y="741.75"/>
      <point x="310.5" y="683.25" type="curve" smooth="yes"/>
      <point x="310.5" y="577.0"/>
      <point x="178.5" y="516.75"/>
    </contour>
    <contour>
      <point x="240.0" y="-18.0" type="curve" smooth="yes"/>
      <point x="295.0" y="-18.0"/>
      <point x="337.5" y="24.75"/>
      <point x="337.5" y="79.5" type="curve" smooth="yes"/>
      <point x="337.5" y="134.25"/>
      <point x="295.0" y="177.0"/>
      <point x="240.0" y="177.0" type="curve" smooth="yes"/>
      <point x="185.25" y="177.0"/>
      <point x="142.5" y="134.25"/>
      <point x="142.5" y="79.5" type="curve" smooth="yes"/>
      <point x="142.5" y="24.75"/>
      <point x="185.25" y="-18.0"/>
    </contour>
  </outline>
</glyph>
<glyph name="at" format="2">
  <advance width="1260.0"/>
  <unicode hex="0040"/>
  <outline>
    <contour>
      <point x="648.75" y="-192.0" type="curve" smooth="yes"/>
      <point x="775.75" y="-192.0"/>
      <point x="890.0" y="-154.0"/>
      <point x="984.0" y="-86.0" type="curve"/>
      <point x="952.75" y="33.5" type="line"/>
      <point x="868.5" y="-34.25"/>
      <point x="765.0" y="-70.5"/>
      <point x="652.0" y="-70.5" type="curve" smooth="yes"/>
      <point x="396.75" y="-70.5"/>
      <point x="204.0" y="117.0"/>
      <point x="204.0" y="357.75" type="curve" smooth="yes"/>
      <point x="204.0" y="597.75"/>
      <point x="395.25" y="790.5"/>
      <point x="658.0" y="790.5" type="curve" smooth="yes"/>
      <point x="904.25" y="790.5"/>
      <point x="1068.0" y="621.5"/>
      <point x="1068.0" y="390.5" type="curve" smooth="yes"/>
      <point x="1068.0" y="262.75"/>
      <point x="1021.5" y="183.25"/>
      <point x="959.75" y="183.25" type="curve" smooth="yes"/>
      <point x="925.75" y="183.25"/>
      <point x="897.25" y="206.25"/>
      <point x="897.25" y="262.25" type="curve" smooth="yes"/>
      <point x="897.25" y="630.0" type="line"/>
      <point x="771.75" y="630.0" type="line"/>
      <point x="771.75" y="532.75" type="line"/>
      <point x="796.25" y="561.75" type="line"/>
      <point x="748.0" y="612.25"/>
      <point x="679.5" y="642.5"/>
      <point x="603.0" y="642.5" type="curve" smooth="yes"/>
      <point x="451.75" y="642.5"/>
      <point x="330.25" y="515.25"/>
      <point x="330.25" y="360.0" type="curve" smooth="yes"/>
      <point x="330.25" y="204.75"/>
      <point x="451.75" y="77.5"/>
      <point x="603.0" y="77.5" type="curve" smooth="yes"/>
      <point x="692.75" y="77.5"/>
      <point x="770.5" y="120.0"/>
      <point x="820.0" y="186.25" type="curve"/>
      <point x="787.25" y="190.0" type="line"/>
      <point x="805.25" y="124.75"/>
      <point x="868.0" y="77.5"/>
      <point x="950.25" y="77.5" type="curve" smooth="yes"/>
      <point x="1078.75" y="77.5"/>
      <point x="1201.5" y="193.75"/>
      <point x="1201.5" y="404.0" type="curve" smooth="yes"/>
      <point x="1201.5" y="695.25"/>
      <point x="958.5" y="912.0"/>
      <point x="653.25" y="912.0" type="curve" smooth="yes"/>
      <point x="327.5" y="912.0"/>
      <point x="70.5" y="664.0"/>
      <point x="70.5" y="356.25" type="curve" smooth="yes"/>
      <point x="70.5" y="50.0"/>
      <point x="327.5" y="-192.0"/>
    </contour>
    <contour>
      <point x="625.5" y="203.5" type="curve" smooth="yes"/>
      <point x="540.75" y="203.5"/>
      <point x="473.25" y="273.25"/>
      <point x="473.25" y="360.0" type="curve" smooth="yes"/>
      <point x="473.25" y="446.75"/>
      <point x="540.75" y="516.5"/>
      <point x="625.5" y="516.5" type="curve" smooth="yes"/>
      <point x="710.25" y="516.5"/>
      <point x="777.75" y="446.75"/>
      <point x="777.75" y="360.0" type="curve" smooth="yes"/>
      <point x="777.75" y="273.25"/>
      <point x="710.25" y="203.5"/>
    </contour>
  </outline>
</glyph>
<glyph name="A" format="2">
  <advance width="815.0"/>
  <unicode hex="0041"/>
  <anchor x="407.5" y="0.0" name="bottom"/>
  <anchor x="672.75" y="0.0" name="ogonek"/>
  <anchor x="407.5" y="900.0" name="top"/>
  <anchor x="127.5" y="720.0" name="top-vertical"/>
  <outline>
    <contour>
      <point x="13.5" y="0.0" type="line"/>
      <point x="173.5" y="0.0" type="line"/>
      <point x="352.0" y="432.0" type="line"/>
      <point x="372.25" y="480.25"/>
      <point x="388.5" y="522.0"/>
      <point x="403.75" y="582.5" type="curve"/>
      <point x="419.75" y="521.25"/>
      <point x="437.0" y="480.0"/>
      <point x="457.25" y="432.0" type="curve"/>
      <point x="635.5" y="0.0" type="line"/>
      <point x="801.5" y="0.0" type="line"/>
      <point x="408.5" y="931.5" type="line"/>
      <point x="406.5" y="931.5" type="line"/>
    </contour>
    <contour>
      <point x="193.75" y="186.75" type="line"/>
      <point x="615.25" y="186.75" type="line"/>
      <point x="567.5" y="318.5" type="line"/>
      <point x="243.25" y="318.5" type="line"/>
    </contour>
  </outline>
</glyph>
<glyph name="F" format="2">
  <advance width="600.0"/>
  <unicode hex="0046"/>
  <outline>
    <contour>
      <point x="103.5" y="0.0" type="line"/>
      <point x="262.5" y="0.0" type="line"/>
      <point x="262.5" y="468.0" type="line"/>
      <point x="544.5" y="468.0" type="line"/>
      <point x="544.5" y="606.0" type="line"/>
      <point x="262.5" y="606.0" type="line"/>
      <point x="262.5" y="762.0" type="line"/>
      <point x="574.5" y="762.0" type="line"/>
      <point x="574.5" y="900.0" type="line"/>
      <point x="103.5" y="900.0" type="line"/>
    </contour>
  </outline>
</glyph>
<glyph name="G" format="2">
  <advance width="925.0"/>
  <unicode hex="0047"/>
  <anchor x="529.0" y="0.0" name="bottom"/>
  <anchor x="783.0" y="270.0" name="center"/>
  <anchor x="530.0" y="900.0" name="top"/>
  <outline>
    <contour>
      <point x="537.25" y="-18.0" type="curve" smooth="yes"/>
      <point x="651.0" y="-18.0"/>
      <point x="756.75" y="14.5"/>
      <point x="839.5" y="71.25" type="curve"/>
      <point x="839.5" y="498.0" type="line"/>
      <point x="489.75" y="498.0" type="line"/>
      <point x="489.75" y="360.0" type="line"/>
      <point x="689.0" y="360.0" type="line"/>
      <point x="689.0" y="170.5" type="line"/>
      <point x="646.5" y="146.5"/>
      <point x="595.0" y="133.5"/>
      <point x="535.0" y="133.5" type="curve" smooth="yes"/>
      <point x="358.5" y="133.5"/>
      <point x="226.0" y="267.5"/>
      <point x="226.0" y="448.5" type="curve" smooth="yes"/>
      <point x="226.0" y="627.25"/>
      <point x="359.0" y="763.5"/>
      <point x="536.0" y="763.5" type="curve" smooth="yes"/>
      <point x="658.75" y="763.5"/>
      <point x="753.25" y="699.25"/>
      <point x="807.0" y="612.5" type="curve"/>
      <point x="853.5" y="801.5" type="line"/>
      <point x="770.0" y="874.5"/>
      <point x="660.25" y="918.0"/>
      <point x="536.0" y="918.0" type="curve" smooth="yes"/>
      <point x="267.5" y="918.0"/>
      <point x="55.5" y="714.0"/>
      <point x="55.5" y="448.5" type="curve" smooth="yes"/>
      <point x="55.5" y="182.25"/>
      <point x="267.25" y="-18.0"/>
    </contour>
  </outline>
</glyph>
<glyph name="I" format="2">
  <advance width="390.0"/>
  <unicode hex="0049"/>
  <anchor x="195.0" y="0.0" name="bottom"/>
  <anchor x="195.0" y="0.0" name="ogonek"/>
  <anchor x="195.0" y="900.0" name="top"/>
  <anchor x="0.0" y="900.0" name="topleft"/>
  <outline>
    <contour>
      <point x="111.0" y="0.0" type="line"/>
      <point x="279.0" y="0.0" type="line"/>
      <point x="279.0" y="900.0" type="line"/>
      <point x="111.0" y="900.0" type="line"/>
    </contour>
  </outline>
</glyph>
<glyph name="J" format="2">
  <advance width="555.0"/>
  <unicode hex="004A"/>
  <anchor x="162.75" y="0.0" name="bottom"/>
  <anchor x="381.75" y="900.0" name="top"/>
  <outline>
    <contour>
      <point x="196.25" y="-18.0" type="curve" smooth="yes"/>
      <point x="336.5" y="-18.0"/>
      <point x="465.0" y="68.75"/>
      <point x="465.0" y="264.25" type="curve" smooth="yes"/>
      <point x="465.0" y="900.0" type="line"/>
      <point x="297.0" y="900.0" type="line"/>
      <point x="297.0" y="276.25" type="line" smooth="yes"/>
      <point x="297.0" y="172.75"/>
      <point x="245.75" y="133.5"/>
      <point x="181.75" y="133.5" type="curve" smooth="yes"/>
      <point x="127.25" y="133.5"/>
      <point x="82.5" y="161.0"/>
      <point x="55.5" y="204.0" type="curve"/>
      <point x="12.0" y="48.0" type="line"/>
      <point x="57.0" y="2.25"/>
      <point x="127.75" y="-18.0"/>
    </contour>
  </outline>
</glyph>
<glyph name="O" format="2">
  <advance width="1060.0"/>
  <unicode hex="004F"/>
  <anchor x="530.0" y="0.0" name="bottom"/>
  <anchor x="530.0" y="450.0" name="center"/>
  <anchor x="560.0" y="0.0" name="ogonek"/>
  <anchor x="530.0" y="900.0" name="top"/>
  <anchor x="530.0" y="487.5" name="top-vertical"/>
  <anchor x="60.0" y="900.0" name="topleft"/>
  <anchor x="1000.0" y="900.0" name="topright"/>
  <outline>
    <contour>
      <point x="530.0" y="-18.0" type="curve" smooth="yes"/>
      <point x="792.25" y="-18.0"/>
      <point x="1004.5" y="191.0"/>
      <point x="1004.5" y="450.0" type="curve" smooth="yes"/>
      <point x="1004.5" y="709.0"/>
      <point x="792.25" y="918.0"/>
      <point x="530.0" y="918.0" type="curve" smooth="yes"/>
      <point x="267.75" y="918.0"/>
      <point x="55.5" y="709.0"/>
      <point x="55.5" y="450.0" type="curve" smooth="yes"/>
      <point x="55.5" y="191.0"/>
      <point x="267.75" y="-18.0"/>
    </contour>
    <contour>
      <point x="530.0" y="139.5" type="curve" smooth="yes"/>
      <point x="359.0" y="139.5"/>
      <point x="226.0" y="278.0"/>
      <point x="226.0" y="450.0" type="curve" smooth="yes"/>
      <point x="226.0" y="622.0"/>
      <point x="359.0" y="760.5"/>
      <point x="530.0" y="760.5" type="curve" smooth="yes"/>
      <point x="701.0" y="760.5"/>
      <point x="834.0" y="622.0"/>
      <point x="834.0" y="450.0" type="curve" smooth="yes"/>
      <point x="834.0" y="278.0"/>
      <point x="701.0" y="139.5"/>
    </contour>
  </outline>
</glyph>
<glyph name="U" format="2">
  <advance width="800.0"/>
  <unicode hex="0055"/>
  <anchor x="400.0" y="0.0" name="bottom"/>
  <anchor x="430.0" y="0.0" name="ogonek"/>
  <anchor x="400.0" y="900.0" name="top"/>
  <anchor x="400.0" y="720.0" name="top-vertical"/>
  <anchor x="635.0" y="900.0" name="topright"/>
  <outline>
    <contour>
      <point x="400.0" y="-18.75" type="curve" smooth="yes"/>
      <point x="587.5" y="-18.75"/>
      <point x="719.0" y="103.25"/>
      <point x="719.0" y="301.25" type="curve" smooth="yes"/>
      <point x="719.0" y="900.0" type="line"/>
      <point x="556.5" y="900.0" type="line"/>
      <point x="556.5" y="300.25" type="line" smooth="yes"/>
      <point x="556.5" y="201.75"/>
      <point x="491.5" y="137.25"/>
      <point x="402.75" y="137.25" type="curve" smooth="yes"/>
      <point x="313.0" y="137.25"/>
      <point x="249.0" y="203.25"/>
      <point x="249.0" y="305.75" type="curve" smooth="yes"/>
      <point x="249.0" y="900.0" type="line"/>
      <point x="81.0" y="900.0" type="line"/>
      <point x="81.0" y="298.0" type="line" smooth="yes"/>
      <point x="81.0" y="103.0"/>
      <point x="215.0" y="-18.75"/>
    </contour>
  </outline>
</glyph>
<glyph name="W" format="2">
  <advance width="1215.0"/>
  <unicode hex="0057"/>
  <anchor x="608.5" y="0.0" name="bottom"/>
  <anchor x="611.5" y="900.0" name="top"/>
  <outline>
    <contour>
      <point x="371.75" y="-31.5" type="line"/>
      <point x="563.5" y="448.25" type="line" smooth="yes"/>
      <point x="577.75" y="483.75"/>
      <point x="592.25" y="517.75"/>
      <point x="607.75" y="572.5" type="curve"/>
      <point x="623.0" y="517.75"/>
      <point x="637.75" y="483.0"/>
      <point x="652.0" y="447.5" type="curve" smooth="yes"/>
      <point x="843.5" y="-31.5" type="line"/>
      <point x="1207.5" y="900.0" type="line"/>
      <point x="1044.75" y="900.0" type="line"/>
      <point x="881.25" y="477.0" type="line" smooth="yes"/>
      <point x="867.5" y="441.5"/>
      <point x="854.5" y="407.25"/>
      <point x="839.0" y="352.5" type="curve"/>
      <point x="823.75" y="407.25"/>
      <point x="807.5" y="441.5"/>
      <point x="793.25" y="477.0" type="curve" smooth="yes"/>
      <point x="611.5" y="930.0" type="line"/>
      <point x="431.0" y="477.0" type="line" smooth="yes"/>
      <point x="416.25" y="440.5"/>
      <point x="401.25" y="406.25"/>
      <point x="386.0" y="352.5" type="curve"/>
      <point x="370.5" y="406.25"/>
      <point x="358.0" y="440.5"/>
      <point x="344.0" y="477.0" type="curve" smooth="yes"/>
      <point x="179.0" y="900.0" type="line"/>
      <point x="7.5" y="900.0" type="line"/>
    </contour>
  </outline>
</glyph>
<glyph name="Z" format="2">
  <advance width="675.0"/>
  <unicode hex="005A"/>
  <anchor x="321.75" y="0.0" name="bottom"/>
  <anchor x="330.75" y="450.0" name="center"/>
  <anchor x="351.75" y="900.0" name="top"/>
  <outline>
    <contour>
      <point x="24.0" y="0.0" type="line"/>
      <point x="618.75" y="0.0" type="line"/>
      <point x="618.75" y="147.0" type="line"/>
      <point x="184.75" y="147.0" type="line"/>
      <point x="219.5" y="56.0" type="line"/>
      <point x="639.0" y="900.0" type="line"/>
      <point x="68.25" y="900.0" type="line"/>
      <point x="68.25" y="753.0" type="line"/>
      <point x="469.25" y="753.0" type="line"/>
      <point x="443.5" y="844.0" type="line"/>
    </contour>
  </outline>
</glyph>
<glyph name="underscore" format="2">
  <advance width="720.0"/>
  <unicode hex="005F"/>
  <outline>
    <contour>
      <point x="-6.0" y="-195.75" type="line"/>
      <point x="726.0" y="-195.75" type="line"/>
      <point x="726.0" y="-74.25" type="line"/>
      <point x="-6.0" y="-74.25" type="line"/>
    </contour>
  </outline>
</glyph>
<glyph name="c" format="2">
  <advance width="607.5"/>
  <unicode hex="0063"/>
  <anchor x="371.0" y="0.0" name="bottom"/>
  <anchor x="371.0" y="600.0" name="top"/>
  <outline>
    <contour>
      <point x="363.0" y="-18.0" type="curve" smooth="yes"/>
      <point x="447.0" y="-18.0"/>
      <point x="522.75" y="11.25"/>
      <point x="580.5" y="63.75" type="curve"/>
      <point x="538.5" y="230.5" type="line"/>
      <point x="505.25" y="172.0"/>
      <point x="444.75" y="124.5"/>
      <point x="368.0" y="124.5" type="curve" smooth="yes"/>
      <point x="268.5" y="124.5"/>
      <point x="193.5" y="203.0"/>
      <point x="193.5" y="300.0" type="curve" smooth="yes"/>
      <point x="193.5" y="397.0"/>
      <point x="268.5" y="475.5"/>
      <point x="368.0" y="475.5" type="curve" smooth="yes"/>
      <point x="444.75" y="475.5"/>
      <point x="505.25" y="426.75"/>
      <point x="538.5" y="369.5" type="curve"/>
      <point x="580.5" y="536.25" type="line"/>
      <point x="522.75" y="588.75"/>
      <point x="447.0" y="618.0"/>
      <point x="363.0" y="618.0" type="curve" smooth="yes"/>
      <point x="184.75" y="618.0"/>
      <point x="40.5" y="475.75"/>
      <point x="40.5" y="300.0" type="curve" smooth="yes"/>
      <point x="40.5" y="124.25"/>
      <point x="184.75" y="-18.0"/>
    </contour>
  </outline>
</glyph>
<glyph name="m" format="2">
  <advance width="1090.0"/>
  <unicode hex="006D"/>
  <anchor x="566.0" y="0.0" name="bottom"/>
  <anchor x="566.0" y="600.0" name="top"/>
  <outline>
    <contour>
      <point x="231.0" y="344.25" type="line"/>
      <point x="231.0" y="432.75"/>
      <point x="290.75" y="475.5"/>
      <point x="352.0" y="475.5" type="curve" smooth="yes"/>
      <point x="423.5" y="475.5"/>
      <point x="472.25" y="418.25"/>
      <point x="472.25" y="342.0" type="curve" smooth="yes"/>
      <point x="472.25" y="0.0" type="line"/>
      <point x="629.75" y="0.0" type="line"/>
      <point x="629.75" y="364.0" type="line" smooth="yes"/>
      <point x="629.75" y="523.75"/>
      <point x="521.0" y="618.0"/>
      <point x="397.25" y="618.0" type="curve" smooth="yes"/>
      <point x="274.5" y="618.0"/>
      <point x="165.25" y="527.75"/>
      <point x="165.25" y="360.0" type="curve"/>
    </contour>
    <contour>
      <point x="73.5" y="0.0" type="line"/>
      <point x="231.0" y="0.0" type="line"/>
      <point x="231.0" y="417.25" type="line"/>
      <point x="215.5" y="445.5" type="line"/>
      <point x="215.5" y="600.0" type="line"/>
      <point x="73.5" y="600.0" type="line"/>
    </contour>
    <contour>
      <point x="629.75" y="344.25" type="line"/>
      <point x="629.75" y="432.5"/>
      <point x="689.0" y="475.25"/>
      <point x="750.75" y="475.25" type="curve" smooth="yes"/>
      <point x="823.5" y="475.25"/>
      <point x="871.0" y="417.25"/>
      <point x="871.0" y="342.0" type="curve" smooth="yes"/>
      <point x="871.0" y="0.0" type="line"/>
      <point x="1028.5" y="0.0" type="line"/>
      <point x="1028.5" y="364.0" type="line" smooth="yes"/>
      <point x="1028.5" y="523.75"/>
      <point x="912.0" y="618.0"/>
      <point x="782.0" y="618.0" type="curve" smooth="yes"/>
      <point x="644.0" y="618.0"/>
      <point x="527.75" y="527.75"/>
      <point x="527.75" y="360.0" type="curve"/>
    </contour>
  </outline>
</glyph>
<glyph name="n" format="2">
  <advance width="705.0"/>
  <unicode hex="006E"/>
  <anchor x="352.5" y="0.0" name="bottom"/>
  <anchor x="352.5" y="600.0" name="top"/>
  <outline>
    <contour>
      <point x="231.0" y="336.75" type="line"/>
      <point x="231.0" y="430.75"/>
      <point x="292.5" y="475.5"/>
      <point x="358.5" y="475.5" type="curve" smooth="yes"/>
      <point x="439.75" y="475.5"/>
      <point x="486.0" y="408.5"/>
      <point x="486.0" y="334.5" type="curve" smooth="yes"/>
      <point x="486.0" y="0.0" type="line"/>
      <point x="643.5" y="0.0" type="line"/>
      <point x="643.5" y="355.5" type="line" smooth="yes"/>
      <point x="643.5" y="522.25"/>
      <point x="527.25" y="618.0"/>
      <point x="400.25" y="618.0" type="curve" smooth="yes"/>
      <point x="272.0" y="618.0"/>
      <point x="164.5" y="523.25"/>
      <point x="164.5" y="351.5" type="curve"/>
    </contour>
    <contour>
      <point x="73.5" y="0.0" type="line"/>
      <point x="231.0" y="0.0" type="line"/>
      <point x="231.0" y="417.25" type="line"/>
      <point x="215.5" y="445.5" type="line"/>
      <point x="215.5" y="600.0" type="line"/>
      <point x="73.5" y="600.0" type="line"/>
    </contour>
  </outline>
</glyph>
<glyph name="o" format="2">
  <advance width="725.0"/>
  <unicode hex="006F"/>
  <anchor x="362.5" y="0.0" name="bottom"/>
  <anchor x="362.5" y="300.0" name="center"/>
  <anchor x="392.5" y="0.0" name="ogonek"/>
  <anchor x="362.5" y="600.0" name="top"/>
  <anchor x="522.5" y="600.0" name="topright"/>
  <outline>
    <contour>
      <point x="362.5" y="-18.0" type="curve" smooth="yes"/>
      <point x="540.5" y="-18.0"/>
      <point x="684.5" y="124.0"/>
      <point x="684.5" y="300.0" type="curve" smooth="yes"/>
      <point x="684.5" y="476.0"/>
      <point x="540.5" y="618.0"/>
      <point x="362.5" y="618.0" type="curve" smooth="yes"/>
      <point x="184.5" y="618.0"/>
      <point x="40.5" y="476.0"/>
      <point x="40.5" y="300.0" type="curve" smooth="yes"/>
      <point x="40.5" y="124.0"/>
      <point x="184.5" y="-18.0"/>
    </contour>
    <contour>
      <point x="362.5" y="124.5" type="curve" smooth="yes"/>
      <point x="266.0" y="124.5"/>
      <point x="189.75" y="202.75"/>
      <point x="189.75" y="300.0" type="curve" smooth="yes"/>
      <point x="189.75" y="397.25"/>
      <point x="266.0" y="475.5"/>
      <point x="362.5" y="475.5" type="curve" smooth="yes"/>
      <point x="458.0" y="475.5"/>
      <point x="535.25" y="397.25"/>
      <point x="535.25" y="300.0" type="curve" smooth="yes"/>
      <point x="535.25" y="202.75"/>
      <point x="458.0" y="124.5"/>
    </contour>
  </outline>
</glyph>
<glyph name="p" format="2">
  <advance width="745.0"/>
  <unicode hex="0070"/>
  <anchor x="390.0" y="0.0" name="bottom"/>
  <anchor x="390.0" y="600.0" name="top"/>
  <outline>
    <contour>
      <point x="73.5" y="-300.0" type="line"/>
      <point x="231.0" y="-300.0" type="line"/>
      <point x="231.0" y="149.25" type="line"/>
      <point x="168.5" y="121.0" type="line"/>
      <point x="213.75" y="40.0"/>
      <point x="299.0" y="-14.0"/>
      <point x="404.0" y="-14.0" type="curve" smooth="yes"/>
      <point x="570.5" y="-14.0"/>
      <point x="704.5" y="127.0"/>
      <point x="704.5" y="300.0" type="curve" smooth="yes"/>
      <point x="704.5" y="473.0"/>
      <point x="570.5" y="614.0"/>
      <point x="404.0" y="614.0" type="curve" smooth="yes"/>
      <point x="299.0" y="614.0"/>
      <point x="214.0" y="560.25"/>
      <point x="168.5" y="478.75" type="curve"/>
      <point x="211.0" y="450.0" type="line"/>
      <point x="211.0" y="600.0" type="line"/>
      <point x="73.5" y="600.0" type="line"/>
    </contour>
    <contour>
      <point x="385.5" y="125.25" type="curve" smooth="yes"/>
      <point x="291.0" y="125.25"/>
      <point x="215.0" y="203.5"/>
      <point x="215.0" y="300.0" type="curve" smooth="yes"/>
      <point x="215.0" y="396.5"/>
      <point x="291.0" y="474.75"/>
      <point x="385.5" y="474.75" type="curve" smooth="yes"/>
      <point x="480.0" y="474.75"/>
      <point x="556.0" y="396.5"/>
      <point x="556.0" y="300.0" type="curve" smooth="yes"/>
      <point x="556.0" y="203.5"/>
      <point x="480.0" y="125.25"/>
    </contour>
  </outline>
</glyph>
<glyph name="u" format="2">
  <advance width="705.0"/>
  <unicode hex="0075"/>
  <anchor x="351.0" y="0.0" name="bottom"/>
  <anchor x="565.0" y="0.0" name="ogonek"/>
  <anchor x="351.0" y="600.0" name="top"/>
  <anchor x="561.0" y="600.0" name="topright"/>
  <outline>
    <contour>
      <point x="304.75" y="-18.0" type="curve" smooth="yes"/>
      <point x="433.0" y="-18.0"/>
      <point x="540.5" y="76.75"/>
      <point x="540.5" y="248.5" type="curve"/>
      <point x="474.0" y="263.25" type="line"/>
      <point x="474.0" y="173.0"/>
      <point x="412.5" y="124.5"/>
      <point x="346.5" y="124.5" type="curve" smooth="yes"/>
      <point x="265.25" y="124.5"/>
      <point x="219.0" y="191.5"/>
      <point x="219.0" y="265.5" type="curve" smooth="yes"/>
      <point x="219.0" y="600.0" type="line"/>
      <point x="61.5" y="600.0" type="line"/>
      <point x="61.5" y="244.5" type="line" smooth="yes"/>
      <point x="61.5" y="77.75"/>
      <point x="177.75" y="-18.0"/>
    </contour>
    <contour>
      <point x="488.0" y="0.0" type="line"/>
      <point x="631.5" y="0.0" type="line"/>
      <point x="631.5" y="600.0" type="line"/>
      <point x="474.0" y="600.0" type="line"/>
      <point x="474.0" y="180.5" type="line"/>
      <point x="488.0" y="154.5" type="line"/>
    </contour>
  </outline>
</glyph>
<glyph name="w" format="2">
  <advance width="1000.0"/>
  <unicode hex="0077"/>
  <anchor x="500.0" y="0.0" name="bottom"/>
  <anchor x="504.0" y="600.0" name="top"/>
  <outline>
    <contour>
      <point x="307.5" y="-30.0" type="line"/>
      <point x="440.5" y="210.25" type="line" smooth="yes"/>
      <point x="461.75" y="248.5"/>
      <point x="481.5" y="285.25"/>
      <point x="500.0" y="332.0" type="curve"/>
      <point x="518.75" y="285.25"/>
      <point x="538.0" y="248.5"/>
      <point x="559.25" y="210.25" type="curve" smooth="yes"/>
      <point x="692.5" y="-30.0" type="line"/>
      <point x="992.5" y="600.0" type="line"/>
      <point x="829.5" y="600.0" type="line"/>
      <point x="729.75" y="390.25" type="line" smooth="yes"/>
      <point x="712.0" y="352.75"/>
      <point x="694.0" y="316.75"/>
      <point x="676.25" y="259.5" type="curve"/>
      <point x="657.75" y="313.75"/>
      <point x="638.75" y="349.5"/>
      <point x="621.75" y="384.25" type="curve" smooth="yes"/>
      <point x="504.0" y="622.0" type="line"/>
      <point x="389.0" y="384.25" type="line" smooth="yes"/>
      <point x="371.25" y="347.5"/>
      <point x="352.0" y="311.25"/>
      <point x="332.5" y="259.5" type="curve"/>
      <point x="314.0" y="313.75"/>
      <point x="296.25" y="352.5"/>
      <point x="277.75" y="390.25" type="curve" smooth="yes"/>
      <point x="178.5" y="600.0" type="line"/>
      <point x="7.5" y="600.0" type="line"/>
    </contour>
  </outline>
</glyph>
<glyph name="braceright" format="2">
  <advance width="480.0"/>
  <unicode hex="007D"/>
  <outline>
    <contour>
      <point x="78.25" y="-186.0" type="line"/>
      <point x="222.25" y="-186.0"/>
      <point x="352.0" y="-108.5"/>
      <point x="352.0" y="61.25" type="curve" smooth="yes"/>
      <point x="352.0" y="121.0"/>
      <point x="335.5" y="179.75"/>
      <point x="335.5" y="233.0" type="curve" smooth="yes"/>
      <point x="335.5" y="319.5"/>
      <point x="378.75" y="354.0"/>
      <point x="451.5" y="390.0" type="curve"/>
      <point x="378.75" y="426.0"/>
      <point x="335.5" y="460.5"/>
      <point x="335.5" y="547.0" type="curve" smooth="yes"/>
      <point x="335.5" y="600.25"/>
      <point x="352.0" y="659.0"/>
      <point x="352.0" y="718.75" type="curve" smooth="yes"/>
      <point x="352.0" y="888.5"/>
      <point x="222.25" y="966.0"/>
      <point x="78.25" y="966.0" type="curve"/>
      <point x="48.0" y="844.5" type="line"/>
      <point x="135.75" y="844.5"/>
      <point x="214.0" y="823.0"/>
      <point x="214.0" y="703.75" type="curve" smooth="yes"/>
      <point x="214.0" y="650.0"/>
      <point x="197.5" y="589.75"/>
      <point x="197.5" y="535.0" type="curve" smooth="yes"/>
      <point x="197.5" y="402.0"/>
      <point x="294.75" y="368.25"/>
      <point x="393.75" y="368.25" type="curve"/>
      <point x="393.75" y="411.75" type="line"/>
      <point x="294.75" y="411.75"/>
      <point x="197.5" y="378.0"/>
      <point x="197.5" y="245.0" type="curve" smooth="yes"/>
      <point x="197.5" y="190.25"/>
      <point x="214.0" y="130.0"/>
      <point x="214.0" y="76.25" type="curve" smooth="yes"/>
      <point x="214.0" y="-43.0"/>
      <point x="135.75" y="-64.5"/>
      <point x="48.0" y="-64.5" type="curve"/>
    </contour>
  </outline>
</glyph>
<glyph name="sterling" format="2">
  <advance width="750.0"/>
  <unicode hex="00A3"/>
  <outline>
    <contour>
      <point x="133.0" y="0.0" type="curve"/>
      <point x="673.5" y="0.0" type="line"/>
      <point x="673.5" y="141.0" type="line"/>
      <point x="280.0" y="141.0" type="line"/>
      <point x="211.0" y="22.5" type="line"/>
      <point x="310.0" y="57.75"/>
      <point x="388.5" y="99.25"/>
      <point x="388.5" y="227.5" type="curve" smooth="yes"/>
      <point x="388.5" y="330.0"/>
      <point x="337.0" y="485.25"/>
      <point x="337.0" y="589.25" type="curve" smooth="yes"/>
      <point x="337.0" y="704.75"/>
      <point x="394.25" y="775.5"/>
      <point x="479.25" y="775.5" type="curve" smooth="yes"/>
      <point x="549.5" y="775.5"/>
      <point x="604.0" y="727.25"/>
      <point x="637.0" y="669.5" type="curve"/>
      <point x="679.25" y="836.75" type="line"/>
      <point x="622.0" y="890.0"/>
      <point x="554.0" y="918.0"/>
      <point x="473.0" y="918.0" type="curve" smooth="yes"/>
      <point x="298.0" y="918.0"/>
      <point x="184.0" y="790.25"/>
      <point x="184.0" y="602.75" type="curve" smooth="yes"/>
      <point x="184.0" y="474.75"/>
      <point x="241.5" y="322.25"/>
      <point x="241.5" y="212.25" type="curve" smooth="yes"/>
      <point x="241.5" y="120.75"/>
      <point x="200.75" y="71.25"/>
    </contour>
    <contour>
      <point x="90.0" y="399.0" type="line"/>
      <point x="600.0" y="399.0" type="line"/>
      <point x="600.0" y="501.0" type="line"/>
      <point x="90.0" y="501.0" type="line"/>
    </contour>
  </outline>
</glyph>
<glyph name="currency" format="2">
  <advance width="750.0"/>
  <unicode hex="00A4"/>
  <outline>
    <contour>
      <point x="121.0" y="108.0" type="line"/>
      <point x="198.25" y="185.25" type="line"/>
      <point x="249.0" y="152.5"/>
      <point x="309.5" y="133.5"/>
      <point x="375.0" y="133.5" type="curve" smooth="yes"/>
      <point x="439.75" y="133.5"/>
      <point x="500.0" y="152.5"/>
      <point x="549.75" y="185.25" type="curve"/>
      <point x="627.0" y="108.0" type="line"/>
      <point x="717.75" y="198.75" type="line"/>
      <point x="641.5" y="275.0" type="line"/>
      <point x="675.5" y="324.75"/>
      <point x="695.5" y="385.25"/>
      <point x="695.5" y="450.0" type="curve" smooth="yes"/>
      <point x="695.5" y="515.75"/>
      <point x="675.25" y="577.0"/>
      <point x="640.5" y="627.5" type="curve"/>
      <point x="717.0" y="704.0" type="line"/>
      <point x="629.0" y="792.0" type="line"/>
      <point x="551.75" y="714.75" type="line"/>
      <point x="501.0" y="747.5"/>
      <point x="440.5" y="766.5"/>
      <point x="375.0" y="766.5" type="curve" smooth="yes"/>
      <point x="311.0" y="766.5"/>
      <point x="250.75" y="747.5"/>
      <point x="201.0" y="715.5" type="curve"/>
      <point x="123.75" y="792.75" type="line"/>
      <point x="33.0" y="702.0" type="line"/>
      <point x="108.5" y="626.5" type="line"/>
      <point x="74.5" y="576.0"/>
      <point x="54.5" y="515.5"/>
      <point x="54.5" y="450.0" type="curve" smooth="yes"/>
      <point x="54.5" y="384.25"/>
      <point x="74.75" y="323.0"/>
      <point x="109.5" y="272.5" type="curve"/>
      <point x="33.0" y="196.0" type="line"/>
    </contour>
    <contour>
      <point x="375.0" y="276.0" type="curve" smooth="yes"/>
      <point x="279.25" y="276.0"/>
      <point x="203.0" y="354.25"/>
      <point x="203.0" y="450.0" type="curve" smooth="yes"/>
      <point x="203.0" y="545.75"/>
      <point x="279.25" y="624.0"/>
      <point x="375.0" y="624.0" type="curve" smooth="yes"/>
      <point x="470.5" y="624.0"/>
      <point x="547.0" y="545.75"/>
      <point x="547.0" y="450.0" type="curve" smooth="yes"/>
      <point x="547.0" y="354.25"/>
      <point x="470.5" y="276.0"/>
    </contour>
  </outline>
</glyph>
<glyph name="brokenbar" format="2">
  <advance width="480.0"/>
  <unicode hex="00A6"/>
  <outline>
    <contour>
      <point x="174.0" y="-180.0" type="line"/>
      <point x="306.0" y="-180.0" type="line"/>
      <point x="306.0" y="240.0" type="line"/>
      <point x="174.0" y="240.0" type="line"/>
    </contour>
    <contour>
      <point x="174.0" y="540.0" type="line"/>
      <point x="306.0" y="540.0" type="line"/>
      <point x="306.0" y="960.0" type="line"/>
      <point x="174.0" y="960.0" type="line"/>
    </contour>
  </outline>
</glyph>
<glyph name="micro" format="2">
  <advance width="735.0"/>
  <unicode hex="00B5"/>
  <outline>
    <contour>
      <point x="73.5" y="-300.0" type="line"/>
      <point x="231.0" y="-300.0" type="line"/>
      <point x="231.0" y="84.5" type="line"/>
      <point x="207.75" y="60.5" type="line"/>
      <point x="244.0" y="9.25"/>
      <point x="297.0" y="-18.0"/>
      <point x="357.0" y="-18.0" type="curve" smooth="yes"/>
      <point x="434.25" y="-18.0"/>
      <point x="501.75" y="27.0"/>
      <point x="532.75" y="112.25" type="curve"/>
      <point x="502.25" y="108.75" type="line"/>
      <point x="529.75" y="31.25"/>
      <point x="598.25" y="-12.0"/>
      <point x="686.0" y="-12.0" type="curve"/>
      <point x="716.25" y="115.5" type="line"/>
      <point x="669.75" y="115.5"/>
      <point x="643.5" y="138.0"/>
      <point x="643.5" y="195.25" type="curve" smooth="yes"/>
      <point x="643.5" y="600.0" type="line"/>
      <point x="486.0" y="600.0" type="line"/>
      <point x="486.0" y="263.25" type="line" smooth="yes"/>
      <point x="486.0" y="173.0"/>
      <point x="424.5" y="124.5"/>
      <point x="358.5" y="124.5" type="curve" smooth="yes"/>
      <point x="277.25" y="124.5"/>
      <point x="231.0" y="191.5"/>
      <point x="231.0" y="265.5" type="curve" smooth="yes"/>
      <point x="231.0" y="600.0" type="line"/>
      <point x="73.5" y="600.0" type="line"/>
    </contour>
  </outline>
</glyph>
<glyph name="ordmasculine" format="2">
  <advance width="480.0"/>
  <unicode hex="00BA"/>
  <outline>
    <contour>
      <point x="240.0" y="403.5" type="curve" smooth="yes"/>
      <point x="353.0" y="403.5"/>
      <point x="444.0" y="491.75"/>
      <point x="444.0" y="600.0" type="curve" smooth="yes"/>
      <point x="444.0" y="708.25"/>
      <point x="353.0" y="796.5"/>
      <point x="240.0" y="796.5" type="curve" smooth="yes"/>
      <point x="127.0" y="796.5"/>
      <point x="36.0" y="708.25"/>
      <point x="36.0" y="600.0" type="curve" smooth="yes"/>
      <point x="36.0" y="491.75"/>
      <point x="127.0" y="403.5"/>
    </contour>
    <contour>
      <point x="240.0" y="511.5" type="curve" smooth="yes"/>
      <point x="188.75" y="511.5"/>
      <point x="149.25" y="551.0"/>
      <point x="149.25" y="600.0" type="curve" smooth="yes"/>
      <point x="149.25" y="649.0"/>
      <point x="188.75" y="688.5"/>
      <point x="240.0" y="688.5" type="curve" smooth="yes"/>
      <point x="290.25" y="688.5"/>
      <point x="330.75" y="649.0"/>
      <point x="330.75" y="600.0" type="curve" smooth="yes"/>
      <point x="330.75" y="551.0"/>
      <point x="290.25" y="511.5"/>
    </contour>
  </outline>
</glyph>
<glyph name="AE" format="2">
  <advance width="1035.0"/>
  <unicode hex="00C6"/>
  <anchor x="759.25" y="0.0" name="bottom"/>
  <anchor x="945.0" y="0.0" name="ogonek"/>
  <anchor x="526.82875" y="900.0" name="top"/>
  <anchor x="127.5" y="720.0" name="top-vertical"/>
  <anchor x="375.57875" y="900.0" name="topleft"/>
  <outline>
    <contour>
      <point x="13.5" y="0.0" type="line"/>
      <point x="173.5" y="0.0" type="line"/>
      <point x="352.0" y="432.0" type="line"/>
      <point x="376.0" y="490.5"/>
      <point x="401.75" y="549.5"/>
      <point x="424.25" y="626.0" type="curve"/>
      <point x="442.5" y="549.5"/>
      <point x="463.25" y="490.5"/>
      <point x="483.0" y="432.0" type="curve"/>
      <point x="627.0" y="0.0" type="line"/>
      <point x="1009.5" y="0.0" type="line"/>
      <point x="1009.5" y="147.0" type="line"/>
      <point x="736.25" y="147.0" type="line"/>
      <point x="629.75" y="468.0" type="line"/>
      <point x="835.5" y="468.0" type="line"/>
      <point x="835.5" y="606.0" type="line"/>
      <point x="583.0" y="606.0" type="line"/>
      <point x="533.0" y="757.5" type="line"/>
      <point x="805.5" y="757.5" type="line"/>
      <point x="805.5" y="900.0" type="line"/>
      <point x="394.0" y="900.0" type="line"/>
    </contour>
    <contour>
      <point x="193.75" y="186.75" type="line"/>
      <point x="615.25" y="186.75" type="line"/>
      <point x="567.5" y="318.5" type="line"/>
      <point x="243.25" y="318.5" type="line"/>
    </contour>
  </outline>
</glyph>
<glyph name="germandbls" format="2">
  <advance width="712.5"/>
  <unicode hex="00DF"/>
  <outline>
    <contour>
      <point x="363.25" y="-15.75" type="line"/>
      <point x="528.75" y="-12.25"/>
      <point x="679.5" y="131.0"/>
      <point x="679.5" y="319.25" type="curve" smooth="yes"/>
      <point x="679.5" y="455.25"/>
      <point x="602.0" y="565.0"/>
      <point x="486.75" y="615.75" type="curve"/>
      <point x="495.0" y="567.0" type="line"/>
      <point x="550.5" y="609.0"/>
      <point x="587.5" y="668.0"/>
      <point x="587.5" y="744.0" type="curve" smooth="yes"/>
      <point x="587.5" y="877.75"/>
      <point x="477.75" y="978.0"/>
      <point x="334.5" y="978.0" type="curve" smooth="yes"/>
      <point x="191.5" y="978.0"/>
      <point x="73.5" y="875.75"/>
      <point x="73.5" y="721.0" type="curve" smooth="yes"/>
      <point x="73.5" y="0.0" type="line"/>
      <point x="231.0" y="0.0" type="line"/>
      <point x="231.0" y="720.25" type="line" smooth="yes"/>
      <point x="231.0" y="788.25"/>
      <point x="275.5" y="835.5"/>
      <point x="335.75" y="835.5" type="curve" smooth="yes"/>
      <point x="395.0" y="835.5"/>
      <point x="439.0" y="789.5"/>
      <point x="439.0" y="727.5" type="curve" smooth="yes"/>
      <point x="439.0" y="665.5"/>
      <point x="392.5" y="604.75"/>
      <point x="304.5" y="557.5" type="curve"/>
      <point x="436.0" y="510.5"/>
      <point x="516.0" y="429.75"/>
      <point x="516.0" y="317.75" type="curve" smooth="yes"/>
      <point x="516.0" y="204.25"/>
      <point x="433.75" y="132.25"/>
      <point x="329.5" y="126.75" type="curve"/>
    </contour>
  </outline>
</glyph>
<glyph name="OE" format="2">
  <advance width="1335.0"/>
  <unicode hex="0152"/>
  <anchor x="530.0" y="0.0" name="bottom"/>
  <anchor x="530.0" y="450.0" name="center"/>
  <anchor x="530.0" y="0.0" name="ogonek"/>
  <anchor x="530.0" y="900.0" name="top"/>
  <anchor x="530.0" y="495.0" name="top-vertical"/>
  <anchor x="60.0" y="900.0" name="topleft"/>
  <anchor x="1000.0" y="900.0" name="topright"/>
  <outline>
    <contour>
      <point x="516.25" y="-18.0" type="curve" smooth="yes"/>
      <point x="650.5" y="-18.0"/>
      <point x="764.25" y="33.25"/>
      <point x="828.5" y="119.25" type="curve"/>
      <point x="810.0" y="147.0" type="line"/>
      <point x="810.0" y="0.0" type="line"/>
      <point x="1279.5" y="0.0" type="line"/>
      <point x="1279.5" y="147.0" type="line"/>
      <point x="967.5" y="147.0" type="line"/>
      <point x="967.5" y="468.0" type="line"/>
      <point x="1209.5" y="468.0" type="line"/>
      <point x="1209.5" y="606.0" type="line"/>
      <point x="967.5" y="606.0" type="line"/>
      <point x="967.5" y="757.5" type="line"/>
      <point x="1279.5" y="757.5" type="line"/>
      <point x="1279.5" y="900.0" type="line"/>
      <point x="810.0" y="900.0" type="line"/>
      <point x="810.0" y="753.0" type="line"/>
      <point x="827.75" y="781.5" type="line"/>
      <point x="765.75" y="863.75"/>
      <point x="655.75" y="918.0"/>
      <point x="516.25" y="918.0" type="curve" smooth="yes"/>
      <point x="261.5" y="918.0"/>
      <point x="55.5" y="709.0"/>
      <point x="55.5" y="450.0" type="curve" smooth="yes"/>
      <point x="55.5" y="191.0"/>
      <point x="262.75" y="-18.0"/>
    </contour>
    <contour>
      <point x="530.0" y="139.5" type="curve" smooth="yes"/>
      <point x="359.0" y="139.5"/>
      <point x="226.0" y="278.0"/>
      <point x="226.0" y="450.0" type="curve" smooth="yes"/>
      <point x="226.0" y="622.0"/>
      <point x="359.0" y="760.5"/>
      <point x="530.0" y="760.5" type="curve" smooth="yes"/>
      <point x="701.0" y="760.5"/>
      <point x="834.0" y="622.0"/>
      <point x="834.0" y="450.0" type="curve" smooth="yes"/>
      <point x="834.0" y="278.0"/>
      <point x="701.0" y="139.5"/>
    </contour>
  </outline>
</glyph>
<glyph name="Ohorn" format="2">
  <advance width="1060.0"/>
  <unicode hex="01A0"/>
  <anchor x="530.0" y="0.0" name="bottom"/>
  <anchor x="530.0" y="0.0" name="ogonek"/>
  <anchor x="530.0" y="900.0" name="top"/>
  <outline>
    <contour>
      <point x="530.0" y="-18.0" type="curve" smooth="yes"/>
      <point x="792.25" y="-18.0"/>
      <point x="1004.5" y="191.0"/>
      <point x="1004.5" y="450.0" type="curve" smooth="yes"/>
      <point x="1004.5" y="709.0"/>
      <point x="792.25" y="918.0"/>
      <point x="530.0" y="918.0" type="curve" smooth="yes"/>
      <point x="267.75" y="918.0"/>
      <point x="55.5" y="709.0"/>
      <point x="55.5" y="450.0" type="curve" smooth="yes"/>
      <point x="55.5" y="191.0"/>
      <point x="267.75" y="-18.0"/>
    </contour>
    <contour>
      <point x="530.0" y="139.5" type="curve" smooth="yes"/>
      <point x="359.0" y="139.5"/>
      <point x="226.0" y="278.0"/>
      <point x="226.0" y="450.0" type="curve" smooth="yes"/>
      <point x="226.0" y="622.0"/>
      <point x="359.0" y="760.5"/>
      <point x="530.0" y="760.5" type="curve" smooth="yes"/>
      <point x="701.0" y="760.5"/>
      <point x="834.0" y="622.0"/>
      <point x="834.0" y="450.0" type="curve" smooth="yes"/>
      <point x="834.0" y="278.0"/>
      <point x="701.0" y="139.5"/>
    </contour>
    <contour>
      <point x="851.5" y="684.5" type="line"/>
      <point x="951.5" y="684.5"/>
      <point x="1024.0" y="749.25"/>
      <point x="1024.0" y="868.0" type="curve" smooth="yes"/>
      <point x="1024.0" y="897.0"/>
      <point x="1019.0" y="928.0"/>
      <point x="1000.0" y="960.0" type="curve"/>
      <point x="859.0" y="960.0" type="line"/>
      <point x="878.0" y="927.0"/>
      <point x="883.0" y="892.0"/>
      <point x="883.0" y="868.0" type="curve" smooth="yes"/>
      <point x="883.0" y="816.75"/>
      <point x="858.75" y="785.75"/>
      <point x="822.25" y="779.0" type="curve"/>
    </contour>
  </outline>
</glyph>
<glyph name="ohorn" format="2">
  <advance width="770.0"/>
  <unicode hex="01A1"/>
  <anchor x="362.5" y="0.0" name="bottom"/>
  <anchor x="362.5" y="600.0" name="top"/>
  <outline>
    <contour>
      <point x="362.5" y="-18.0" type="curve" smooth="yes"/>
      <point x="540.5" y="-18.0"/>
      <point x="684.5" y="124.0"/>
      <point x="684.5" y="300.0" type="curve" smooth="yes"/>
      <point x="684.5" y="476.0"/>
      <point x="540.5" y="618.0"/>
      <point x="362.5" y="618.0" type="curve" smooth="yes"/>
      <point x="184.5" y="618.0"/>
      <point x="40.5" y="476.0"/>
      <point x="40.5" y="300.0" type="curve" smooth="yes"/>
      <point x="40.5" y="124.0"/>
      <point x="184.5" y="-18.0"/>
    </contour>
    <contour>
      <point x="362.5" y="124.5" type="curve" smooth="yes"/>
      <point x="266.0" y="124.5"/>
      <point x="189.75" y="202.75"/>
      <point x="189.75" y="300.0" type="curve" smooth="yes"/>
      <point x="189.75" y="397.25"/>
      <point x="266.0" y="475.5"/>
      <point x="362.5" y="475.5" type="curve" smooth="yes"/>
      <point x="458.0" y="475.5"/>
      <point x="535.25" y="397.25"/>
      <point x="535.25" y="300.0" type="curve" smooth="yes"/>
      <point x="535.25" y="202.75"/>
      <point x="458.0" y="124.5"/>
    </contour>
    <contour>
      <point x="611.0" y="398.0" type="line"/>
      <point x="690.0" y="398.0"/>
      <point x="761.0" y="458.0"/>
      <point x="761.0" y="568.0" type="curve" smooth="yes"/>
      <point x="761.0" y="597.0"/>
      <point x="756.0" y="628.0"/>
      <point x="737.0" y="660.0" type="curve"/>
      <point x="606.5" y="660.0" type="line"/>
      <point x="625.5" y="627.0"/>
      <point x="630.5" y="592.0"/>
      <point x="630.5" y="568.0" type="curve" smooth="yes"/>
      <point x="630.5" y="503.0"/>
      <point x="593.5" y="476.0"/>
      <point x="548.0" y="476.0" type="curve"/>
    </contour>
  </outline>
</glyph>
<glyph name="Uhorn" format="2">
  <advance width="935.0"/>
  <unicode hex="01AF"/>
  <anchor x="400.0" y="0.0" name="bottom"/>
  <anchor x="400.0" y="900.0" name="top"/>
  <outline>
    <contour>
      <point x="400.0" y="-18.75" type="curve" smooth="yes"/>
      <point x="587.5" y="-18.75"/>
      <point x="719.0" y="103.25"/>
      <point x="719.0" y="301.25" type="curve" smooth="yes"/>
      <point x="719.0" y="735.75" type="line"/>
      <point x="708.5" y="742.5" type="line"/>
      <point x="708.5" y="900.0" type="line"/>
      <point x="555.25" y="900.0" type="line"/>
      <point x="555.25" y="300.25" type="line" smooth="yes"/>
      <point x="555.25" y="201.75"/>
      <point x="490.75" y="137.25"/>
      <point x="402.25" y="137.25" type="curve" smooth="yes"/>
      <point x="312.75" y="137.25"/>
      <point x="249.25" y="203.25"/>
      <point x="249.25" y="305.75" type="curve" smooth="yes"/>
      <point x="249.25" y="900.0" type="line"/>
      <point x="81.0" y="900.0" type="line"/>
      <point x="81.0" y="298.0" type="line" smooth="yes"/>
      <point x="81.0" y="103.0"/>
      <point x="215.0" y="-18.75"/>
    </contour>
    <contour>
      <point x="763.25" y="684.5" type="curve" smooth="yes"/>
      <point x="846.75" y="684.5"/>
      <point x="926.0" y="748.5"/>
      <point x="926.0" y="866.5" type="curve" smooth="yes"/>
      <point x="926.0" y="896.25"/>
      <point x="921.0" y="927.25"/>
      <point x="902.0" y="960.0" type="curve"/>
      <point x="765.5" y="960.0" type="line"/>
      <point x="784.5" y="927.0"/>
      <point x="789.5" y="892.0"/>
      <point x="789.5" y="868.0" type="curve" smooth="yes"/>
      <point x="789.5" y="816.0"/>
      <point x="760.0" y="789.5"/>
      <point x="724.25" y="789.5" type="curve" smooth="yes"/>
      <point x="697.5" y="789.5"/>
      <point x="673.0" y="802.25"/>
      <point x="660.5" y="828.25" type="curve"/>
      <point x="660.5" y="721.75" type="line"/>
      <point x="688.0" y="697.25"/>
      <point x="725.0" y="684.5"/>
    </contour>
  </outline>
</glyph>
<glyph name="Ezh" format="2">
  <advance width="660.0"/>
  <unicode hex="01B7"/>
  <anchor x="302.0" y="0.0" name="bottom"/>
  <anchor x="325.75" y="900.0" name="top"/>
  <outline>
    <contour>
      <point x="297.5" y="-18.0" type="curve" smooth="yes"/>
      <point x="476.0" y="-18.0"/>
      <point x="627.0" y="119.75"/>
      <point x="627.0" y="299.25" type="curve" smooth="yes"/>
      <point x="627.0" y="451.5"/>
      <point x="518.0" y="570.75"/>
      <point x="382.75" y="598.25" type="curve"/>
      <point x="391.75" y="537.0" type="line"/>
      <point x="586.25" y="900.0" type="line"/>
      <point x="75.0" y="900.0" type="line"/>
      <point x="75.0" y="757.5" type="line"/>
      <point x="406.0" y="757.5" type="line"/>
      <point x="374.5" y="803.5" type="line"/>
      <point x="163.75" y="393.25" type="line"/>
      <point x="155.25" y="421.5" type="line"/>
      <point x="201.75" y="452.25"/>
      <point x="244.75" y="469.5"/>
      <point x="296.0" y="469.5" type="curve" smooth="yes"/>
      <point x="399.0" y="469.5"/>
      <point x="471.0" y="394.0"/>
      <point x="471.0" y="300.75" type="curve" smooth="yes"/>
      <point x="471.0" y="205.0"/>
      <point x="395.5" y="130.5"/>
      <point x="299.0" y="130.5" type="curve" smooth="yes"/>
      <point x="192.75" y="130.5"/>
      <point x="110.75" y="221.0"/>
      <point x="105.75" y="324.75" type="curve"/>
      <point x="127.0" y="334.5" type="line"/>
      <point x="-3.75" y="75.5" type="line"/>
      <point x="9.25" y="149.5" type="line"/>
      <point x="61.5" y="50.5"/>
      <point x="171.25" y="-18.0"/>
    </contour>
  </outline>
</glyph>
<glyph name="schwa" format="2">
  <advance width="695.0"/>
  <unicode hex="0259"/>
  <anchor x="347.5" y="0.0" name="bottom"/>
  <anchor x="61.5" y="590.0" name="ogonek"/>
  <anchor x="347.5" y="600.0" name="top"/>
  <outline>
    <contour>
      <point x="342.75" y="-18.0" type="curve" smooth="yes"/>
      <point x="516.25" y="-18.0"/>
      <point x="654.5" y="115.75"/>
      <point x="654.5" y="294.0" type="curve" smooth="yes"/>
      <point x="654.5" y="481.25"/>
      <point x="516.25" y="618.0"/>
      <point x="316.75" y="618.0" type="curve" smooth="yes"/>
      <point x="235.5" y="618.0"/>
      <point x="158.0" y="594.0"/>
      <point x="98.5" y="548.5" type="curve"/>
      <point x="134.5" y="400.75" type="line"/>
      <point x="173.75" y="448.75"/>
      <point x="237.5" y="484.5"/>
      <point x="313.5" y="484.5" type="curve" smooth="yes"/>
      <point x="430.75" y="484.5"/>
      <point x="507.5" y="404.75"/>
      <point x="507.5" y="298.0" type="curve"/>
      <point x="515.75" y="298.0" type="line"/>
      <point x="515.75" y="188.0"/>
      <point x="442.25" y="109.5"/>
      <point x="344.25" y="109.5" type="curve" smooth="yes"/>
      <point x="243.75" y="109.5"/>
      <point x="173.25" y="185.5"/>
      <point x="173.25" y="296.5" type="curve"/>
      <point x="146.0" y="245.25" type="line"/>
      <point x="187.0" y="234.0"/>
      <point x="228.5" y="228.75"/>
      <point x="277.75" y="228.75" type="curve" smooth="yes"/>
      <point x="407.0" y="228.75" type="line" smooth="yes"/>
      <point x="456.5" y="228.75"/>
      <point x="502.5" y="236.75"/>
      <point x="552.0" y="248.75" type="curve"/>
      <point x="552.0" y="325.75" type="line"/>
      <point x="502.5" y="337.75"/>
      <point x="456.5" y="345.75"/>
      <point x="407.0" y="345.75" type="curve" smooth="yes"/>
      <point x="34.5" y="345.75" type="line"/>
      <point x="34.5" y="289.0" type="line" smooth="yes"/>
      <point x="34.5" y="114.0"/>
      <point x="168.5" y="-18.0"/>
    </contour>
  </outline>
</glyph>
<glyph name="ezh" format="2">
  <advance width="660.0"/>
  <unicode hex="0292"/>
  <anchor x="304.25" y="-315.0" name="bottom"/>
  <anchor x="322.25" y="600.0" name="top"/>
  <outline>
    <contour>
      <point x="293.0" y="-318.0" type="curve" smooth="yes"/>
      <point x="470.75" y="-318.0"/>
      <point x="621.0" y="-181.75"/>
      <point x="621.0" y="-4.5" type="curve" smooth="yes"/>
      <point x="621.0" y="133.25"/>
      <point x="530.0" y="243.75"/>
      <point x="410.5" y="282.0" type="curve"/>
      <point x="581.0" y="600.0" type="line"/>
      <point x="83.0" y="600.0" type="line"/>
      <point x="83.0" y="459.0" type="line"/>
      <point x="401.5" y="459.0" type="line"/>
      <point x="370.0" y="503.5" type="line"/>
      <point x="182.5" y="138.5" type="line"/>
      <point x="217.75" y="157.25"/>
      <point x="252.25" y="168.0"/>
      <point x="291.5" y="168.0" type="curve" smooth="yes"/>
      <point x="394.5" y="168.0"/>
      <point x="467.25" y="92.5"/>
      <point x="467.25" y="-0.75" type="curve" smooth="yes"/>
      <point x="467.25" y="-96.5"/>
      <point x="391.0" y="-171.0"/>
      <point x="294.5" y="-171.0" type="curve" smooth="yes"/>
      <point x="200.25" y="-171.0"/>
      <point x="125.5" y="-100.25"/>
      <point x="106.25" y="-11.5" type="curve"/>
      <point x="21.5" y="-178.5" type="line"/>
      <point x="78.75" y="-262.5"/>
      <point x="178.75" y="-318.0"/>
    </contour>
  </outline>
</glyph>
<glyph name="gravecomb" format="2">
  <unicode hex="0300"/>
  <anchor x="422.0" y="600.0" name="_top"/>
  <outline>
    <contour>
      <point x="359.75" y="690.0" type="line"/>
      <point x="485.25" y="690.0" type="line"/>
      <point x="402.0" y="870.0" type="line"/>
      <point x="228.75" y="870.0" type="line"/>
    </contour>
  </outline>
</glyph>
<glyph name="dotaccentcomb" format="2">
  <unicode hex="0307"/>
  <anchor x="360.0" y="780.0" name="_centerright"/>
  <anchor x="360.0" y="600.0" name="_top"/>
  <outline>
    <contour>
      <point x="360.0" y="692.25" type="curve" smooth="yes"/>
      <point x="410.0" y="692.25"/>
      <point x="447.75" y="731.0"/>
      <point x="447.75" y="780.0" type="curve" smooth="yes"/>
      <point x="447.75" y="830.0"/>
      <point x="410.0" y="867.75"/>
      <point x="360.0" y="867.75" type="curve" smooth="yes"/>
      <point x="311.0" y="867.75"/>
      <point x="272.25" y="830.0"/>
      <point x="272.25" y="780.0" type="curve" smooth="yes"/>
      <point x="272.25" y="731.0"/>
      <point x="311.0" y="692.25"/>
    </contour>
  </outline>
</glyph>
<glyph name="dieresiscomb" format="2">
  <unicode hex="0308"/>
  <anchor x="360.0" y="600.0" name="_top"/>
  <outline>
    <contour>
      <point x="231.0" y="695.25" type="curve" smooth="yes"/>
      <point x="279.0" y="695.25"/>
      <point x="315.75" y="733.0"/>
      <point x="315.75" y="780.0" type="curve" smooth="yes"/>
      <point x="315.75" y="828.0"/>
      <point x="279.0" y="864.75"/>
      <point x="231.0" y="864.75" type="curve" smooth="yes"/>
      <point x="184.0" y="864.75"/>
      <point x="146.25" y="828.0"/>
      <point x="146.25" y="780.0" type="curve" smooth="yes"/>
      <point x="146.25" y="733.0"/>
      <point x="184.0" y="695.25"/>
    </contour>
    <contour>
      <point x="489.0" y="695.25" type="curve" smooth="yes"/>
      <point x="537.0" y="695.25"/>
      <point x="573.75" y="733.0"/>
      <point x="573.75" y="780.0" type="curve" smooth="yes"/>
      <point x="573.75" y="828.0"/>
      <point x="537.0" y="864.75"/>
      <point x="489.0" y="864.75" type="curve" smooth="yes"/>
      <point x="442.0" y="864.75"/>
      <point x="404.25" y="828.0"/>
      <point x="404.25" y="780.0" type="curve" smooth="yes"/>
      <point x="404.25" y="733.0"/>
      <point x="442.0" y="695.25"/>
    </contour>
  </outline>
</glyph>
<glyph name="ringcomb" format="2">
  <unicode hex="030A"/>
  <anchor x="360.0" y="600.0" name="_top"/>
  <outline>
    <contour>
      <point x="360.0" y="646.5" type="curve" smooth="yes"/>
      <point x="436.25" y="646.5"/>
      <point x="496.5" y="703.75"/>
      <point x="496.5" y="780.0" type="curve" smooth="yes"/>
      <point x="496.5" y="855.25"/>
      <point x="434.25" y="913.5"/>
      <point x="360.0" y="913.5" type="curve" smooth="yes"/>
      <point x="284.75" y="913.5"/>
      <point x="223.5" y="855.25"/>
      <point x="223.5" y="780.0" type="curve" smooth="yes"/>
      <point x="223.5" y="704.75"/>
      <point x="284.75" y="646.5"/>
    </contour>
    <contour>
      <point x="360.0" y="723.75" type="curve" smooth="yes"/>
      <point x="328.75" y="723.75"/>
      <point x="303.75" y="748.75"/>
      <point x="303.75" y="780.0" type="curve" smooth="yes"/>
      <point x="303.75" y="811.25"/>
      <point x="328.75" y="836.25"/>
      <point x="360.0" y="836.25" type="curve" smooth="yes"/>
      <point x="390.25" y="836.25"/>
      <point x="416.25" y="811.25"/>
      <point x="416.25" y="780.0" type="curve" smooth="yes"/>
      <point x="416.25" y="748.75"/>
      <point x="391.25" y="723.75"/>
    </contour>
  </outline>
</glyph>
<glyph name="commaturnedabovecomb" format="2">
  <unicode hex="0312"/>
  <anchor x="360.0" y="600.0" name="_top"/>
  <outline>
    <contour>
      <point x="286.25" y="711.0" type="curve"/>
      <point x="433.75" y="711.0" type="line"/>
      <point x="440.75" y="799.75"/>
      <point x="473.25" y="871.75"/>
      <point x="520.5" y="930.0" type="curve"/>
      <point x="359.5" y="930.0" type="line"/>
      <point x="318.0" y="865.0"/>
      <point x="292.25" y="792.0"/>
    </contour>
  </outline>
</glyph>
<glyph name="brevebelowcomb" format="2">
  <unicode hex="032E"/>
  <anchor x="360.0" y="0.0" name="_bottom"/>
  <anchor x="360.0" y="-249.0" name="bottom"/>
  <outline>
    <contour>
      <point x="360.0" y="-249.0" type="curve" smooth="yes"/>
      <point x="461.0" y="-249.0"/>
      <point x="540.0" y="-175.0"/>
      <point x="540.0" y="-75.0" type="curve"/>
      <point x="452.0" y="-75.0" type="line"/>
      <point x="452.0" y="-126.0"/>
      <point x="409.0" y="-167.0"/>
      <point x="360.0" y="-167.0" type="curve" smooth="yes"/>
      <point x="311.0" y="-167.0"/>
      <point x="268.0" y="-126.0"/>
      <point x="268.0" y="-75.0" type="curve"/>
      <point x="180.0" y="-75.0" type="line"/>
      <point x="180.0" y="-174.0"/>
      <point x="260.0" y="-249.0"/>
    </contour>
  </outline>
</glyph>
<glyph name="Germandbls" format="2">
  <advance width="990.0"/>
  <unicode hex="1E9E"/>
  <outline>
    <contour>
      <point x="622.5" y="-18.0" type="curve" smooth="yes"/>
      <point x="800.25" y="-18.0"/>
      <point x="950.5" y="119.0"/>
      <point x="950.5" y="297.75" type="curve" smooth="yes"/>
      <point x="950.5" y="435.5"/>
      <point x="860.25" y="546.75"/>
      <point x="742.25" y="585.75" type="curve"/>
      <point x="910.5" y="900.0" type="line"/>
      <point x="106.5" y="900.0" type="line"/>
      <point x="106.5" y="0.0" type="line"/>
      <point x="273.75" y="0.0" type="line"/>
      <point x="273.75" y="754.5" type="line"/>
      <point x="674.0" y="754.5" type="line"/>
      <point x="512.75" y="439.25" type="line"/>
      <point x="547.25" y="458.0"/>
      <point x="581.75" y="468.0"/>
      <point x="621.0" y="468.0" type="curve" smooth="yes"/>
      <point x="724.0" y="468.0"/>
      <point x="796.0" y="392.5"/>
      <point x="796.0" y="299.25" type="curve" smooth="yes"/>
      <point x="796.0" y="203.5"/>
      <point x="720.5" y="129.0"/>
      <point x="624.0" y="129.0" type="curve" smooth="yes"/>
      <point x="526.75" y="129.0"/>
      <point x="450.5" y="204.25"/>
      <point x="433.5" y="296.75" type="curve"/>
      <point x="348.0" y="126.75" type="line"/>
      <point x="403.75" y="39.75"/>
      <point x="506.0" y="-18.0"/>
    </contour>
  </outline>
</glyph>
<glyph name="guilsinglleft" format="2">
  <advance width="360.0"/>
  <unicode hex="2039"/>
  <outline>
    <contour>
      <point x="183.75" y="60.0" type="line"/>
      <point x="332.25" y="60.0" type="line"/>
      <point x="170.25" y="300.0" type="line"/>
      <point x="332.25" y="540.0" type="line"/>
      <point x="183.75" y="540.0" type="line"/>
      <point x="21.75" y="300.0" type="line"/>
    </contour>
  </outline>
</glyph>
<glyph name="careof" format="2">
  <advance width="960.0"/>
  <unicode hex="2105"/>
  <outline>
    <contour>
      <point x="85.75" y="0.0" type="line"/>
      <point x="214.75" y="0.0" type="line"/>
      <point x="833.5" y="900.0" type="line"/>
      <point x="704.5" y="900.0" type="line"/>
    </contour>
    <contour>
      <point x="720.0" y="-16.5" type="curve" smooth="yes"/>
      <point x="833.0" y="-16.5"/>
      <point x="924.0" y="71.75"/>
      <point x="924.0" y="180.0" type="curve" smooth="yes"/>
      <point x="924.0" y="288.25"/>
      <point x="833.0" y="376.5"/>
      <point x="720.0" y="376.5" type="curve" smooth="yes"/>
      <point x="607.0" y="376.5"/>
      <point x="516.0" y="288.25"/>
      <point x="516.0" y="180.0" type="curve" smooth="yes"/>
      <point x="516.0" y="71.75"/>
      <point x="607.0" y="-16.5"/>
    </contour>
    <contour>
      <point x="720.0" y="91.5" type="curve" smooth="yes"/>
      <point x="668.75" y="91.5"/>
      <point x="629.25" y="131.0"/>
      <point x="629.25" y="180.0" type="curve" smooth="yes"/>
      <point x="629.25" y="229.0"/>
      <point x="668.75" y="268.5"/>
      <point x="720.0" y="268.5" type="curve" smooth="yes"/>
      <point x="770.25" y="268.5"/>
      <point x="810.75" y="229.0"/>
      <point x="810.75" y="180.0" type="curve" smooth="yes"/>
      <point x="810.75" y="131.0"/>
      <point x="770.25" y="91.5"/>
    </contour>
    <contour>
      <point x="240.0" y="523.5" type="curve" smooth="yes"/>
      <point x="280.5" y="523.5"/>
      <point x="318.0" y="535.0"/>
      <point x="350.0" y="554.5" type="curve"/>
      <point x="323.0" y="661.75" type="line"/>
      <point x="304.5" y="643.25"/>
      <point x="280.75" y="631.5"/>
      <point x="247.5" y="631.5" type="curve" smooth="yes"/>
      <point x="192.5" y="631.5"/>
      <point x="153.75" y="671.0"/>
      <point x="153.75" y="720.0" type="curve" smooth="yes"/>
      <point x="153.75" y="769.0"/>
      <point x="192.5" y="808.5"/>
      <point x="247.5" y="808.5" type="curve" smooth="yes"/>
      <point x="280.75" y="808.5"/>
      <point x="305.25" y="796.75"/>
      <point x="323.0" y="778.5" type="curve"/>
      <point x="350.0" y="885.5" type="line"/>
      <point x="318.0" y="905.0"/>
      <point x="280.5" y="916.5"/>
      <point x="240.0" y="916.5" type="curve" smooth="yes"/>
      <point x="127.0" y="916.5"/>
      <point x="36.0" y="828.25"/>
      <point x="36.0" y="720.0" type="curve" smooth="yes"/>
      <point x="36.0" y="611.75"/>
      <point x="127.0" y="523.5"/>
    </contour>
  </outline>
</glyph>
<glyph name="el" format="2">
  <advance width="750.0"/>
  <unicode hex="218B"/>
  <outline>
    <contour>
      <point x="122.25" y="0.0" type="line"/>
      <point x="669.25" y="0.0" type="line"/>
      <point x="669.25" y="142.5" type="line"/>
      <point x="301.25" y="142.5" type="line"/>
      <point x="332.75" y="96.75" type="line"/>
      <point x="529.5" y="477.5" type="line"/>
      <point x="497.25" y="462.25"/>
      <point x="467.0" y="455.75"/>
      <point x="431.0" y="455.75" type="curve" smooth="yes"/>
      <point x="339.0" y="455.75"/>
      <point x="272.5" y="526.0"/>
      <point x="272.5" y="613.75" type="curve" smooth="yes"/>
      <point x="272.5" y="703.0"/>
      <point x="342.75" y="772.5"/>
      <point x="432.5" y="772.5" type="curve" smooth="yes"/>
      <point x="518.75" y="772.5"/>
      <point x="585.5" y="708.0"/>
      <point x="605.25" y="626.25" type="curve"/>
      <point x="688.5" y="789.25" type="line"/>
      <point x="633.25" y="867.5"/>
      <point x="539.25" y="918.0"/>
      <point x="433.25" y="918.0" type="curve" smooth="yes"/>
      <point x="262.5" y="918.0"/>
      <point x="118.0" y="783.5"/>
      <point x="118.0" y="613.5" type="curve" smooth="yes"/>
      <point x="118.0" y="470.5"/>
      <point x="219.5" y="357.25"/>
      <point x="348.5" y="331.0" type="curve"/>
      <point x="334.0" y="395.25" type="line"/>
    </contour>
  </outline>
</glyph>
<glyph name="notequal" format="2">
  <advance width="750.0"/>
  <unicode hex="2260"/>
  <outline>
    <contour>
      <point x="174.0" y="150.0" type="line"/>
      <point x="284.0" y="150.0" type="line"/>
      <point x="576.0" y="750.0" type="line"/>
      <point x="466.0" y="750.0" type="line"/>
    </contour>
    <contour>
      <point x="82.5" y="265.5" type="line"/>
      <point x="667.5" y="265.5" type="line"/>
      <point x="667.5" y="391.5" type="line"/>
      <point x="82.5" y="391.5" type="line"/>
    </contour>
    <contour>
      <point x="82.5" y="508.5" type="line"/>
      <point x="667.5" y="508.5" type="line"/>
      <point x="667.5" y="634.5" type="line"/>
      <point x="82.5" y="634.5" type="line"/>
    </contour>
  </outline>
</glyph>
<glyph name="rightanglebracket-math" format="2">
  <advance width="480.0"/>
  <unicode hex="27E9"/>
  <outline>
    <contour>
      <point x="36.0" y="-180.0" type="line"/>
      <point x="192.75" y="-180.0" type="line"/>
      <point x="454.5" y="390.0" type="line"/>
      <point x="192.75" y="960.0" type="line"/>
      <point x="36.0" y="960.0" type="line"/>
      <point x="297.75" y="390.0" type="line"/>
    </contour>
  </outline>
</glyph>
<glyph name="J.ss02" format="2">
  <advance width="600.0"/>
  <anchor x="300.0" y="0.0" name="bottom"/>
  <anchor x="302.0" y="900.0" name="top"/>
  <outline>
    <contour>
      <point x="111.0" y="804.0" type="line"/>
      <point x="492.0" y="804.0" type="line"/>
      <point x="492.0" y="900.0" type="line"/>
      <point x="111.0" y="900.0" type="line"/>
    </contour>
    <contour>
      <point x="213.0" y="-12.0" type="curve" smooth="yes"/>
      <point x="361.0" y="-12.0"/>
      <point x="492.0" y="79.0"/>
      <point x="492.0" y="284.0" type="curve" smooth="yes"/>
      <point x="492.0" y="900.0" type="line"/>
      <point x="378.0" y="900.0" type="line"/>
      <point x="378.0" y="292.0" type="line" smooth="yes"/>
      <point x="378.0" y="143.0"/>
      <point x="304.0" y="90.0"/>
      <point x="218.0" y="90.0" type="curve" smooth="yes"/>
      <point x="142.0" y="90.0"/>
      <point x="81.0" y="129.0"/>
      <point x="45.0" y="192.0" type="curve"/>
      <point x="12.0" y="64.0" type="line"/>
      <point x="63.0" y="9.0"/>
      <point x="140.0" y="-12.0"/>
    </contour>
  </outline>
</glyph>
<glyph name="bar.titl" format="2">
  <advance width="480.0"/>
  <outline>
    <contour>
      <point x="204.25" y="-180.0" type="line"/>
      <point x="275.75" y="-180.0" type="line"/>
      <point x="275.75" y="960.0" type="line"/>
      <point x="204.25" y="960.0" type="line"/>
    </contour>
  </outline>
</glyph>
<glyph name="braceright.titl" format="2">
  <advance width="480.0"/>
  <outline>
    <contour>
      <point x="74.0" y="-186.0" type="line"/>
      <point x="221.25" y="-186.0"/>
      <point x="324.5" y="-107.75"/>
      <point x="324.5" y="61.25" type="curve" smooth="yes"/>
      <point x="324.5" y="120.25"/>
      <point x="311.75" y="195.0"/>
      <point x="311.75" y="239.5" type="curve" smooth="yes"/>
      <point x="311.75" y="322.25"/>
      <point x="354.75" y="354.0"/>
      <point x="442.5" y="390.0" type="curve"/>
      <point x="354.75" y="426.0"/>
      <point x="311.75" y="457.75"/>
      <point x="311.75" y="540.5" type="curve" smooth="yes"/>
      <point x="311.75" y="585.0"/>
      <point x="324.5" y="659.75"/>
      <point x="324.5" y="718.75" type="curve" smooth="yes"/>
      <point x="324.5" y="887.75"/>
      <point x="221.25" y="966.0"/>
      <point x="74.0" y="966.0" type="curve"/>
      <point x="60.0" y="905.25" type="line"/>
      <point x="182.25" y="905.25"/>
      <point x="253.0" y="855.25"/>
      <point x="253.0" y="709.0" type="curve" smooth="yes"/>
      <point x="253.0" y="648.5"/>
      <point x="239.5" y="579.5"/>
      <point x="239.5" y="535.25" type="curve" smooth="yes"/>
      <point x="239.5" y="442.75"/>
      <point x="297.75" y="381.0"/>
      <point x="396.5" y="381.0" type="curve"/>
      <point x="396.5" y="399.0" type="line"/>
      <point x="297.75" y="399.0"/>
      <point x="239.5" y="337.25"/>
      <point x="239.5" y="244.75" type="curve" smooth="yes"/>
      <point x="239.5" y="200.5"/>
      <point x="253.0" y="131.5"/>
      <point x="253.0" y="71.0" type="curve" smooth="yes"/>
      <point x="253.0" y="-75.25"/>
      <point x="181.25" y="-125.25"/>
      <point x="60.0" y="-125.25" type="curve"/>
    </contour>
  </outline>
</glyph>
<glyph name="c.001" format="2">
  <advance width="607.5"/>
  <anchor x="366.5" y="0.0" name="bottom"/>
  <anchor x="366.5" y="555.0" name="top"/>
  <outline>
    <contour>
      <point x="359.25" y="-17.25" type="curve" smooth="yes"/>
      <point x="437.25" y="-17.25"/>
      <point x="507.75" y="9.75"/>
      <point x="561.75" y="58.5" type="curve"/>
      <point x="522.0" y="214.75" type="line"/>
      <point x="491.0" y="161.5"/>
      <point x="435.0" y="117.75"/>
      <point x="364.25" y="117.75" type="curve" smooth="yes"/>
      <point x="271.5" y="117.75"/>
      <point x="202.5" y="189.5"/>
      <point x="202.5" y="277.5" type="curve" smooth="yes"/>
      <point x="202.5" y="365.5"/>
      <point x="272.25" y="437.25"/>
      <point x="364.25" y="437.25" type="curve" smooth="yes"/>
      <point x="435.0" y="437.25"/>
      <point x="491.0" y="392.25"/>
      <point x="522.0" y="339.5" type="curve"/>
      <point x="561.75" y="496.5" type="line"/>
      <point x="507.75" y="545.25"/>
      <point x="437.25" y="571.5"/>
      <point x="359.25" y="571.5" type="curve" smooth="yes"/>
      <point x="192.25" y="571.5"/>
      <point x="57.75" y="439.75"/>
      <point x="57.75" y="277.5" type="curve" smooth="yes"/>
      <point x="57.75" y="114.5"/>
      <point x="193.0" y="-17.25"/>
    </contour>
  </outline>
</glyph>
<glyph name="cent.BRACKET.150" format="2">
  <advance width="750.0"/>
  <outline>
    <contour>
      <point x="423.0" y="132.0" type="curve" smooth="yes"/>
      <point x="507.0" y="132.0"/>
      <point x="582.75" y="161.25"/>
      <point x="640.5" y="213.75" type="curve"/>
      <point x="598.5" y="380.5" type="line"/>
      <point x="565.25" y="322.0"/>
      <point x="504.75" y="274.5"/>
      <point x="428.0" y="274.5" type="curve" smooth="yes"/>
      <point x="328.5" y="274.5"/>
      <point x="253.5" y="353.0"/>
      <point x="253.5" y="450.0" type="curve" smooth="yes"/>
      <point x="253.5" y="547.0"/>
      <point x="328.5" y="625.5"/>
      <point x="428.0" y="625.5" type="curve" smooth="yes"/>
      <point x="504.75" y="625.5"/>
      <point x="565.25" y="576.75"/>
      <point x="598.5" y="519.5" type="curve"/>
      <point x="640.5" y="686.25" type="line"/>
      <point x="582.75" y="738.75"/>
      <point x="507.0" y="768.0"/>
      <point x="423.0" y="768.0" type="curve" smooth="yes"/>
      <point x="244.75" y="768.0"/>
      <point x="100.5" y="625.75"/>
      <point x="100.5" y="450.0" type="curve" smooth="yes"/>
      <point x="100.5" y="274.25"/>
      <point x="244.75" y="132.0"/>
    </contour>
    <contour>
      <point x="369.0" y="0.0" type="line"/>
      <point x="471.0" y="0.0" type="line"/>
      <point x="471.0" y="900.0" type="line"/>
      <point x="369.0" y="900.0" type="line"/>
    </contour>
  </outline>
</glyph>
<glyph name="circumflexcomb_hookabovecomb" format="2">
  <anchor x="360.0" y="600.0" name="_top"/>
  <outline>
    <contour>
      <point x="148.5" y="681.0" type="line"/>
      <point x="294.5" y="681.0" type="line"/>
      <point x="318.0" y="706.0"/>
      <point x="335.75" y="730.25"/>
      <point x="358.0" y="762.25" type="curve"/>
      <point x="380.25" y="730.25"/>
      <point x="398.0" y="706.0"/>
      <point x="421.5" y="681.0" type="curve"/>
      <point x="571.5" y="681.0" type="line"/>
      <point x="360.0" y="918.0" type="line"/>
    </contour>
    <contour>
      <point x="525.0" y="810.0" type="curve"/>
      <point x="646.5" y="810.0" type="line"/>
      <point x="671.0" y="836.75"/>
      <point x="691.5" y="869.75"/>
      <point x="691.5" y="912.0" type="curve" smooth="yes"/>
      <point x="691.5" y="983.0"/>
      <point x="627.5" y="1024.5"/>
      <point x="548.25" y="1024.5" type="curve" smooth="yes"/>
      <point x="502.75" y="1024.5"/>
      <point x="458.0" y="1010.25"/>
      <point x="434.75" y="990.75" type="curve"/>
      <point x="460.5" y="898.5" type="line"/>
      <point x="474.5" y="914.75"/>
      <point x="498.25" y="930.0"/>
      <point x="521.25" y="930.0" type="curve" smooth="yes"/>
      <point x="551.0" y="930.0"/>
      <point x="569.25" y="912.5"/>
      <point x="569.25" y="888.25" type="curve" smooth="yes"/>
      <point x="569.25" y="867.5"/>
      <point x="553.25" y="842.0"/>
    </contour>
  </outline>
</glyph>
<glyph name="circumflexcomb_tildecomb" format="2">
  <anchor x="360.0" y="600.0" name="_top"/>
  <outline>
    <contour>
      <point x="148.5" y="681.0" type="line"/>
      <point x="294.5" y="681.0" type="line"/>
      <point x="318.0" y="702.5"/>
      <point x="335.75" y="723.75"/>
      <point x="358.0" y="751.25" type="curve"/>
      <point x="380.25" y="723.75"/>
      <point x="398.0" y="702.5"/>
      <point x="421.5" y="681.0" type="curve"/>
      <point x="571.5" y="681.0" type="line"/>
      <point x="360.0" y="901.5" type="line"/>
    </contour>
    <contour>
      <point x="200.75" y="895.0" type="line"/>
      <point x="216.75" y="934.75"/>
      <point x="243.25" y="958.25"/>
      <point x="280.75" y="958.25" type="curve" smooth="yes"/>
      <point x="332.0" y="958.25"/>
      <point x="379.0" y="913.0"/>
      <point x="440.5" y="913.0" type="curve" smooth="yes"/>
      <point x="488.5" y="913.0"/>
      <point x="530.75" y="939.5"/>
      <point x="554.25" y="986.25" type="curve"/>
      <point x="519.25" y="1087.0" type="line"/>
      <point x="503.25" y="1047.5"/>
      <point x="476.75" y="1023.75"/>
      <point x="439.25" y="1023.75" type="curve" smooth="yes"/>
      <point x="388.0" y="1023.75"/>
      <point x="341.0" y="1069.25"/>
      <point x="279.5" y="1069.25" type="curve" smooth="yes"/>
      <point x="231.5" y="1069.25"/>
      <point x="189.25" y="1042.5"/>
      <point x="165.75" y="995.75" type="curve"/>
    </contour>
  </outline>
</glyph>
<glyph name="dek.numr" format="2">
  <advance width="480.0"/>
  <outline>
    <contour>
      <point x="251.5" y="403.5" type="curve" smooth="yes"/>
      <point x="353.0" y="403.5"/>
      <point x="429.75" y="475.5"/>
      <point x="429.75" y="570.25" type="curve" smooth="yes"/>
      <point x="429.75" y="593.75"/>
      <point x="425.75" y="608.25"/>
      <point x="419.0" y="627.0" type="curve"/>
      <point x="292.5" y="627.0" type="line"/>
      <point x="305.75" y="609.75"/>
      <point x="312.25" y="594.0"/>
      <point x="312.25" y="575.0" type="curve" smooth="yes"/>
      <point x="312.25" y="539.5"/>
      <point x="289.5" y="513.5"/>
      <point x="252.5" y="513.5" type="curve" smooth="yes"/>
      <point x="218.0" y="513.5"/>
      <point x="193.5" y="537.25"/>
      <point x="193.5" y="573.25" type="curve" smooth="yes"/>
      <point x="193.5" y="594.5"/>
      <point x="201.5" y="613.25"/>
      <point x="228.5" y="647.75" type="curve" smooth="yes"/>
      <point x="428.75" y="900.0" type="line"/>
      <point x="50.25" y="900.0" type="line"/>
      <point x="50.25" y="794.5" type="line"/>
      <point x="155.25" y="794.5" type="line"/>
      <point x="198.0" y="794.5"/>
      <point x="235.5" y="796.75"/>
      <point x="273.75" y="800.5" type="curve"/>
      <point x="259.75" y="827.25" type="line"/>
      <point x="207.75" y="785.5"/>
      <point x="168.0" y="744.25"/>
      <point x="134.0" y="702.5" type="curve" smooth="yes"/>
      <point x="91.25" y="651.0"/>
      <point x="73.0" y="612.75"/>
      <point x="73.0" y="570.0" type="curve" smooth="yes"/>
      <point x="73.0" y="478.25"/>
      <point x="149.5" y="403.5"/>
    </contour>
  </outline>
</glyph>
<glyph name="dieresiscomb_macroncomb" format="2">
  <anchor x="360.0" y="600.0" name="_top"/>
  <outline>
    <contour>
      <point x="231.0" y="695.25" type="curve" smooth="yes"/>
      <point x="279.0" y="695.25"/>
      <point x="315.75" y="733.0"/>
      <point x="315.75" y="780.0" type="curve" smooth="yes"/>
      <point x="315.75" y="828.0"/>
      <point x="279.0" y="864.75"/>
      <point x="231.0" y="864.75" type="curve" smooth="yes"/>
      <point x="184.0" y="864.75"/>
      <point x="146.25" y="828.0"/>
      <point x="146.25" y="780.0" type="curve" smooth="yes"/>
      <point x="146.25" y="733.0"/>
      <point x="184.0" y="695.25"/>
    </contour>
    <contour>
      <point x="489.0" y="695.25" type="curve" smooth="yes"/>
      <point x="537.0" y="695.25"/>
      <point x="573.75" y="733.0"/>
      <point x="573.75" y="780.0" type="curve" smooth="yes"/>
      <point x="573.75" y="828.0"/>
      <point x="537.0" y="864.75"/>
      <point x="489.0" y="864.75" type="curve" smooth="yes"/>
      <point x="442.0" y="864.75"/>
      <point x="404.25" y="828.0"/>
      <point x="404.25" y="780.0" type="curve" smooth="yes"/>
      <point x="404.25" y="733.0"/>
      <point x="442.0" y="695.25"/>
    </contour>
    <contour>
      <point x="180.0" y="933.75" type="line"/>
      <point x="540.0" y="933.75" type="line"/>
      <point x="540.0" y="1043.25" type="line"/>
      <point x="180.0" y="1043.25" type="line"/>
    </contour>
  </outline>
</glyph>
<glyph name="dotaccentcomb.case" format="2">
  <anchor x="360.0" y="900.0" name="_top"/>
  <outline>
    <contour>
      <point x="360.0" y="992.25" type="curve" smooth="yes"/>
      <point x="410.0" y="992.25"/>
      <point x="447.75" y="1031.0"/>
      <point x="447.75" y="1080.0" type="curve" smooth="yes"/>
      <point x="447.75" y="1130.0"/>
      <point x="410.0" y="1167.75"/>
      <point x="360.0" y="1167.75" type="curve" smooth="yes"/>
      <point x="311.0" y="1167.75"/>
      <point x="272.25" y="1130.0"/>
      <point x="272.25" y="1080.0" type="curve" smooth="yes"/>
      <point x="272.25" y="1031.0"/>
      <point x="311.0" y="992.25"/>
    </contour>
  </outline>
</glyph>
<glyph name="endash.case" format="2">
  <advance width="720.0"/>
  <outline>
    <contour>
      <point x="52.5" y="384.0" type="line"/>
      <point x="667.5" y="384.0" type="line"/>
      <point x="667.5" y="516.0" type="line"/>
      <point x="52.5" y="516.0" type="line"/>
    </contour>
  </outline>
</glyph>
<glyph name="equal.titl" format="2">
  <advance width="750.0"/>
  <outline>
    <contour>
      <point x="90.0" y="301.25" type="line"/>
      <point x="660.0" y="301.25" type="line"/>
      <point x="660.0" y="370.75" type="line"/>
      <point x="90.0" y="370.75" type="line"/>
    </contour>
    <contour>
      <point x="90.0" y="529.25" type="line"/>
      <point x="660.0" y="529.25" type="line"/>
      <point x="660.0" y="598.75" type="line"/>
      <point x="90.0" y="598.75" type="line"/>
    </contour>
  </outline>
</glyph>
<glyph name="greater.titl" format="2">
  <advance width="750.0"/>
  <outline>
    <contour>
      <point x="90.0" y="161.75" type="line"/>
      <point x="682.5" y="451.5" type="line"/>
      <point x="90.0" y="740.25" type="line"/>
      <point x="90.0" y="661.75" type="line"/>
      <point x="403.0" y="511.25" type="line" smooth="yes"/>
      <point x="447.5" y="489.5"/>
      <point x="498.75" y="469.5"/>
      <point x="545.75" y="451.0" type="curve"/>
      <point x="498.75" y="432.0"/>
      <point x="447.5" y="412.0"/>
      <point x="403.0" y="390.25" type="curve" smooth="yes"/>
      <point x="90.0" y="239.0" type="line"/>
    </contour>
  </outline>
</glyph>
<glyph name="less.titl" format="2">
  <advance width="750.0"/>
  <outline>
    <contour>
      <point x="660.0" y="161.75" type="line"/>
      <point x="660.0" y="240.25" type="line"/>
      <point x="347.0" y="390.75" type="line" smooth="yes"/>
      <point x="302.5" y="412.5"/>
      <point x="251.25" y="432.5"/>
      <point x="204.25" y="451.0" type="curve"/>
      <point x="251.25" y="470.0"/>
      <point x="302.5" y="490.0"/>
      <point x="347.0" y="511.75" type="curve" smooth="yes"/>
      <point x="660.0" y="663.0" type="line"/>
      <point x="660.0" y="740.25" type="line"/>
      <point x="67.5" y="450.5" type="line"/>
    </contour>
  </outline>
</glyph>
<glyph name="minus.titl" format="2">
  <advance width="750.0"/>
  <outline>
    <contour>
      <point x="90.0" y="414.25" type="line"/>
      <point x="660.0" y="414.25" type="line"/>
      <point x="660.0" y="485.75" type="line"/>
      <point x="90.0" y="485.75" type="line"/>
    </contour>
  </outline>
</glyph>
<glyph name="nine.numr" format="2">
  <advance width="480.0"/>
  <outline>
    <contour>
      <point x="168.25" y="420.0" type="line"/>
      <point x="292.5" y="420.0" type="line"/>
      <point x="412.5" y="646.25" type="line" smooth="yes"/>
      <point x="426.0" y="672.5"/>
      <point x="434.75" y="704.0"/>
      <point x="434.75" y="734.25" type="curve" smooth="yes"/>
      <point x="434.75" y="837.0"/>
      <point x="346.75" y="916.5"/>
      <point x="240.0" y="916.5" type="curve" smooth="yes"/>
      <point x="133.25" y="916.5"/>
      <point x="45.25" y="837.75"/>
      <point x="45.25" y="735.5" type="curve" smooth="yes"/>
      <point x="45.25" y="635.25"/>
      <point x="127.5" y="561.5"/>
      <point x="226.25" y="561.5" type="curve" smooth="yes"/>
      <point x="251.75" y="561.5"/>
      <point x="280.75" y="567.5"/>
      <point x="304.0" y="590.25" type="curve"/>
      <point x="269.75" y="600.0" type="line"/>
    </contour>
    <contour>
      <point x="240.0" y="656.5" type="curve" smooth="yes"/>
      <point x="195.75" y="656.5"/>
      <point x="161.25" y="692.25"/>
      <point x="161.25" y="736.25" type="curve" smooth="yes"/>
      <point x="161.25" y="779.25"/>
      <point x="196.0" y="814.0"/>
      <point x="240.0" y="814.0" type="curve" smooth="yes"/>
      <point x="284.25" y="814.0"/>
      <point x="318.75" y="779.25"/>
      <point x="318.75" y="736.25" type="curve" smooth="yes"/>
      <point x="318.75" y="692.25"/>
      <point x="284.25" y="656.5"/>
    </contour>
  </outline>
</glyph>
<glyph name="ogonekcomb.A" format="2">
  <anchor x="403.0" y="0.0" name="_ogonek"/>
  <outline>
    <contour>
      <point x="466.25" y="-316.5" type="curve"/>
      <point x="494.25" y="-197.25" type="line"/>
      <point x="447.0" y="-196.5"/>
      <point x="411.75" y="-173.25"/>
      <point x="411.75" y="-120.5" type="curve" smooth="yes"/>
      <point x="411.75" y="-76.25"/>
      <point x="436.25" y="-40.5"/>
      <point x="471.75" y="0.0" type="curve"/>
      <point x="397.5" y="82.5" type="line"/>
      <point x="290.75" y="-36.75"/>
      <point x="274.25" y="-100.0"/>
      <point x="274.25" y="-153.0" type="curve" smooth="yes"/>
      <point x="274.25" y="-263.0"/>
      <point x="357.5" y="-316.5"/>
    </contour>
  </outline>
</glyph>
<glyph name="one.lf" format="2">
  <advance width="480.0"/>
  <outline>
    <contour>
      <point x="204.0" y="0.0" type="line"/>
      <point x="363.0" y="0.0" type="line"/>
      <point x="363.0" y="929.0" type="line"/>
      <point x="63.0" y="779.0" type="line"/>
      <point x="63.0" y="624.5" type="line"/>
      <point x="255.5" y="718.75" type="line"/>
      <point x="204.0" y="760.75" type="line"/>
    </contour>
  </outline>
</glyph>
<glyph name="plus.titl" format="2">
  <advance width="750.0"/>
  <outline>
    <contour>
      <point x="337.5" y="135.0" type="line"/>
      <point x="412.5" y="135.0" type="line"/>
      <point x="412.5" y="765.0" type="line"/>
      <point x="337.5" y="765.0" type="line"/>
    </contour>
    <contour>
      <point x="60.0" y="414.25" type="line"/>
      <point x="690.0" y="414.25" type="line"/>
      <point x="690.0" y="485.75" type="line"/>
      <point x="60.0" y="485.75" type="line"/>
    </contour>
  </outline>
</glyph>
<glyph name="registered.lf" format="2">
  <advance width="1260.0"/>
  <outline>
    <contour>
      <point x="419.5" y="90.0" type="line"/>
      <point x="560.5" y="90.0" type="line"/>
      <point x="560.5" y="630.0" type="line"/>
      <point x="419.5" y="630.0" type="line"/>
    </contour>
    <contour>
      <point x="493.0" y="248.0" type="line"/>
      <point x="641.0" y="248.0" type="line" smooth="yes"/>
      <point x="771.5" y="248.0"/>
      <point x="858.5" y="329.25"/>
      <point x="858.5" y="437.5" type="curve" smooth="yes"/>
      <point x="858.5" y="542.0"/>
      <point x="776.25" y="630.0"/>
      <point x="641.0" y="630.0" type="curve" smooth="yes"/>
      <point x="493.0" y="630.0" type="line"/>
      <point x="493.0" y="515.25" type="line"/>
      <point x="626.25" y="515.25" type="line" smooth="yes"/>
      <point x="681.75" y="515.25"/>
      <point x="717.5" y="483.75"/>
      <point x="717.5" y="437.5" type="curve" smooth="yes"/>
      <point x="717.5" y="397.75"/>
      <point x="688.25" y="357.75"/>
      <point x="626.25" y="357.75" type="curve" smooth="yes"/>
      <point x="493.0" y="357.75" type="line"/>
    </contour>
    <contour>
      <point x="745.5" y="90.0" type="line"/>
      <point x="910.5" y="90.0" type="line"/>
      <point x="742.75" y="329.75" type="line"/>
      <point x="579.75" y="329.75" type="line"/>
    </contour>
    <contour>
      <point x="630.0" y="-192.0" type="curve" smooth="yes"/>
      <point x="938.0" y="-192.0"/>
      <point x="1188.0" y="55.0"/>
      <point x="1188.0" y="360.0" type="curve" smooth="yes"/>
      <point x="1188.0" y="665.0"/>
      <point x="938.0" y="912.0"/>
      <point x="630.0" y="912.0" type="curve" smooth="yes"/>
      <point x="322.0" y="912.0"/>
      <point x="72.0" y="665.0"/>
      <point x="72.0" y="360.0" type="curve" smooth="yes"/>
      <point x="72.0" y="55.0"/>
      <point x="322.0" y="-192.0"/>
    </contour>
    <contour>
      <point x="630.0" y="-70.5" type="curve" smooth="yes"/>
      <point x="392.25" y="-70.5"/>
      <point x="199.5" y="122.25"/>
      <point x="199.5" y="360.0" type="curve" smooth="yes"/>
      <point x="199.5" y="597.75"/>
      <point x="392.25" y="790.5"/>
      <point x="630.0" y="790.5" type="curve" smooth="yes"/>
      <point x="867.75" y="790.5"/>
      <point x="1060.5" y="597.75"/>
      <point x="1060.5" y="360.0" type="curve" smooth="yes"/>
      <point x="1060.5" y="122.25"/>
      <point x="867.75" y="-70.5"/>
    </contour>
  </outline>
</glyph>
<glyph name="ringcomb_acutecomb.case" format="2">
  <anchor x="360.0" y="900.0" name="_top"/>
  <outline>
    <contour>
      <point x="360.0" y="825.0" type="curve" smooth="yes"/>
      <point x="452.25" y="825.0"/>
      <point x="528.0" y="896.75"/>
      <point x="528.0" y="990.0" type="curve" smooth="yes"/>
      <point x="528.0" y="1083.25"/>
      <point x="452.25" y="1155.0"/>
      <point x="360.0" y="1155.0" type="curve" smooth="yes"/>
      <point x="266.75" y="1155.0"/>
      <point x="192.0" y="1083.25"/>
      <point x="192.0" y="990.0" type="curve" smooth="yes"/>
      <point x="192.0" y="896.75"/>
      <point x="266.75" y="825.0"/>
    </contour>
    <contour>
      <point x="360.0" y="917.25" type="curve" smooth="yes"/>
      <point x="320.0" y="917.25"/>
      <point x="287.25" y="950.0"/>
      <point x="287.25" y="990.0" type="curve" smooth="yes"/>
      <point x="287.25" y="1029.0"/>
      <point x="320.0" y="1062.75"/>
      <point x="360.0" y="1062.75" type="curve" smooth="yes"/>
      <point x="399.0" y="1062.75"/>
      <point x="432.75" y="1029.0"/>
      <point x="432.75" y="990.0" type="curve" smooth="yes"/>
      <point x="432.75" y="950.0"/>
      <point x="399.0" y="917.25"/>
    </contour>
    <contour>
      <point x="306.0" y="1206.0" type="line"/>
      <point x="421.5" y="1206.0" type="line"/>
      <point x="506.75" y="1335.0" type="line"/>
      <point x="362.75" y="1335.0" type="line"/>
    </contour>
  </outline>
</glyph>
<glyph name="six.numr" format="2">
  <advance width="480.0"/>
  <outline>
    <contour>
      <point x="240.0" y="403.5" type="curve" smooth="yes"/>
      <point x="347.5" y="403.5"/>
      <point x="436.25" y="482.5"/>
      <point x="436.25" y="585.25" type="curve" smooth="yes"/>
      <point x="436.25" y="686.0"/>
      <point x="353.25" y="760.0"/>
      <point x="253.75" y="760.0" type="curve" smooth="yes"/>
      <point x="228.25" y="760.0"/>
      <point x="199.0" y="754.0"/>
      <point x="175.5" y="731.25" type="curve"/>
      <point x="209.75" y="720.0" type="line"/>
      <point x="311.25" y="900.0" type="line"/>
      <point x="187.5" y="900.0" type="line"/>
      <point x="66.25" y="675.0" type="line" smooth="yes"/>
      <point x="52.5" y="648.5"/>
      <point x="43.75" y="617.0"/>
      <point x="43.75" y="586.5" type="curve" smooth="yes"/>
      <point x="43.75" y="483.25"/>
      <point x="132.5" y="403.5"/>
    </contour>
    <contour>
      <point x="240.0" y="506.0" type="curve" smooth="yes"/>
      <point x="195.0" y="506.0"/>
      <point x="159.75" y="542.25"/>
      <point x="159.75" y="585.25" type="curve" smooth="yes"/>
      <point x="159.75" y="630.0"/>
      <point x="195.0" y="666.5"/>
      <point x="240.0" y="666.5" type="curve" smooth="yes"/>
      <point x="285.0" y="666.5"/>
      <point x="320.25" y="630.0"/>
      <point x="320.25" y="585.25" type="curve" smooth="yes"/>
      <point x="320.25" y="542.25"/>
      <point x="284.0" y="506.0"/>
    </contour>
  </outline>
</glyph>
<glyph name="slashlongcomb.case" format="2">
  <anchor x="400.0" y="457.0" name="_center"/>
  <outline>
    <contour>
      <point x="77.75" y="-23.25" type="line"/>
      <point x="806.75" y="853.75" type="line"/>
      <point x="722.25" y="923.25" type="line"/>
      <point x="-6.75" y="46.25" type="line"/>
    </contour>
  </outline>
</glyph>
<glyph name="slashshortcomb.case" format="2">
  <anchor x="213.0" y="300.0" name="_center"/>
  <outline>
    <contour>
      <point x="63.0" y="158.5" type="line"/>
      <point x="529.5" y="428.5" type="line"/>
      <point x="477.0" y="519.5" type="line"/>
      <point x="10.5" y="249.5" type="line"/>
    </contour>
  </outline>
</glyph>
<glyph name="strokeshortcomb.T" format="2">
  <anchor x="270.0" y="300.0" name="_center"/>
  <outline>
    <contour>
      <point x="30.0" y="242.25" type="line"/>
      <point x="510.0" y="242.25" type="line"/>
      <point x="510.0" y="357.75" type="line"/>
      <point x="30.0" y="357.75" type="line"/>
    </contour>
  </outline>
</glyph>
<glyph name="three.lf" format="2">
  <advance width="690.0"/>
  <outline>
    <contour>
      <point x="295.5" y="-18.0" type="curve" smooth="yes"/>
      <point x="473.25" y="-18.0"/>
      <point x="623.5" y="118.25"/>
      <point x="623.5" y="295.5" type="curve" smooth="yes"/>
      <point x="623.5" y="433.25"/>
      <point x="532.5" y="543.75"/>
      <point x="413.0" y="582.0" type="curve"/>
      <point x="583.5" y="900.0" type="line"/>
      <point x="85.5" y="900.0" type="line"/>
      <point x="85.5" y="759.0" type="line"/>
      <point x="404.0" y="759.0" type="line"/>
      <point x="372.5" y="803.5" type="line"/>
      <point x="185.0" y="439.25" type="line"/>
      <point x="220.25" y="458.0"/>
      <point x="254.75" y="468.0"/>
      <point x="294.0" y="468.0" type="curve" smooth="yes"/>
      <point x="397.0" y="468.0"/>
      <point x="469.0" y="392.5"/>
      <point x="469.0" y="299.25" type="curve" smooth="yes"/>
      <point x="469.0" y="203.5"/>
      <point x="393.5" y="129.0"/>
      <point x="297.0" y="129.0" type="curve" smooth="yes"/>
      <point x="202.75" y="129.0"/>
      <point x="128.0" y="199.75"/>
      <point x="108.75" y="288.5" type="curve"/>
      <point x="24.0" y="121.5" type="line"/>
      <point x="81.25" y="37.5"/>
      <point x="181.25" y="-18.0"/>
    </contour>
  </outline>
</glyph>
<glyph name="tildecomb_macroncomb" format="2">
  <anchor x="360.0" y="600.0" name="_top"/>
  <outline>
    <contour>
      <point x="184.25" y="686.75" type="line"/>
      <point x="202.25" y="730.5"/>
      <point x="231.0" y="756.25"/>
      <point x="272.75" y="756.25" type="curve" smooth="yes"/>
      <point x="329.0" y="756.25"/>
      <point x="380.5" y="706.75"/>
      <point x="448.75" y="706.75" type="curve" smooth="yes"/>
      <point x="502.0" y="706.75"/>
      <point x="548.25" y="735.5"/>
      <point x="574.5" y="787.25" type="curve"/>
      <point x="535.75" y="898.5" type="line"/>
      <point x="517.75" y="854.75"/>
      <point x="489.0" y="828.75"/>
      <point x="447.5" y="828.75" type="curve" smooth="yes"/>
      <point x="391.0" y="828.75"/>
      <point x="339.75" y="878.5"/>
      <point x="271.25" y="878.5" type="curve" smooth="yes"/>
      <point x="218.25" y="878.5"/>
      <point x="172.0" y="849.75"/>
      <point x="145.5" y="798.0" type="curve"/>
    </contour>
    <contour>
      <point x="180.0" y="933.75" type="line"/>
      <point x="540.0" y="933.75" type="line"/>
      <point x="540.0" y="1043.25" type="line"/>
      <point x="180.0" y="1043.25" type="line"/>
    </contour>
  </outline>
</glyph>
<glyph name="zero.lf" format="2">
  <advance width="750.0"/>
  <outline>
    <contour>
      <point x="375.0" y="-18.0" type="curve" smooth="yes"/>
      <point x="601.0" y="-18.0"/>
      <point x="703.5" y="223.0"/>
      <point x="703.5" y="450.0" type="curve" smooth="yes"/>
      <point x="703.5" y="677.0"/>
      <point x="601.0" y="918.0"/>
      <point x="375.0" y="918.0" type="curve" smooth="yes"/>
      <point x="149.0" y="918.0"/>
      <point x="46.5" y="677.0"/>
      <point x="46.5" y="450.0" type="curve" smooth="yes"/>
      <point x="46.5" y="223.0"/>
      <point x="149.0" y="-18.0"/>
    </contour>
    <contour>
      <point x="375.0" y="129.0" type="curve" smooth="yes"/>
      <point x="255.25" y="129.0"/>
      <point x="210.0" y="303.0"/>
      <point x="210.0" y="450.0" type="curve" smooth="yes"/>
      <point x="210.0" y="597.0"/>
      <point x="255.25" y="771.0"/>
      <point x="375.0" y="771.0" type="curve" smooth="yes"/>
      <point x="494.75" y="771.0"/>
      <point x="540.0" y="597.0"/>
      <point x="540.0" y="450.0" type="curve" smooth="yes"/>
      <point x="540.0" y="303.0"/>
      <point x="494.75" y="129.0"/>
    </contour>
  </outline>
</glyph>
